/* XPM */
static char *result[] = {
/* columns rows colors chars-per-pixel */
"64 64 3 1 ",
"  c black",
". c #808080",
"X c white",
/* pixels */
"................................................................",
"................................................................",
"................................................................",
"................................................................",
"................................................................",
"................................................................",
"XXXXXXXXX         XXXXXXXXX         XXXXXXXXX         XXXXXXXXX.",
"XXXXXXXXX         XXXXXXXXX         XXXXXXXXX         XXXXXXXXX.",
"XXXXXXXXX         XXXXXXXXX         XXXXXXXXX         XXXXXXXXX.",
"XXXXXXXXX         XXXXXXXXX         XXXXXXXXX         XXXXXXXXX.",
"XXXXXXXXX         XXXXXXXXX         XXXXXXXXX         XXXXXXXXX.",
"XXXXXXXXX         XXXXXXXXX         XXXXXXXXX         XXXXXXXXX.",
"XXXXXXXXX         XXXXXXXXX         XXXXXXXXX         XXXXXXXXX.",
"XXXXXXXXX         XXXXXXXXX         XXXXXXXXX         XXXXXXXXX.",
"XXXXXXXXX         XXXXXXXXX         XXXXXXXXX         XXXXXXXXX.",
"         XXXXXXXXX         XXXXXXXXX         XXXXXXXXX          ",
"         XXXXXXXXX         XXXXXXXXX         XXXXXXXXX          ",
"         XXXXXXXXX         XXXXXXXXX         XXXXXXXXX          ",
"         XXXXXXXXX         XXXXXXXXX         XXXXXXXXX          ",
"         XXXXXXXXX         XXXXXXXXX         XXXXXXXXX          ",
"         XXXXXXXXX         XXXXXXXXX         XXXXXXXXX          ",
"         XXXXXXXXX         XXXXXXXXX         XXXXXXXXX          ",
"         XXXXXXXXX         XXXXXXXXX         XXXXXXXXX          ",
"         XXXXXXXXX         XXXXXXXXX         XXXXXXXXX          ",
"XXXXXXXXX         XXXXXXXXX         XXXXXXXXX         XXXXXXXXX.",
"XXXXXXXXX         XXXXXXXXX         XXXXXXXXX         XXXXXXXXX.",
"XXXXXXXXX         XXXXXXXXX         XXXXXXXXX         XXXXXXXXX.",
"XXXXXXXXX         XXXXXXXXX         XXXXXXXXX         XXXXXXXXX.",
"XXXXXXXXX         XXXXXXXXX         XXXXXXXXX         XXXXXXXXX.",
"XXXXXXXXX         XXXXXXXXX         XXXXXXXXX         XXXXXXXXX.",
"XXXXXXXXX         XXXXXXXXX         XXXXXXXXX         XXXXXXXXX.",
"XXXXXXXXX         XXXXXXXXX         XXXXXXXXX         XXXXXXXXX.",
"XXXXXXXXX         XXXXXXXXX         XXXXXXXXX         XXXXXXXXX.",
"         XXXXXXXXX         XXXXXXXXX         XXXXXXXXX          ",
"         XXXXXXXXX         XXXXXXXXX         XXXXXXXXX          ",
"         XXXXXXXXX         XXXXXXXXX         XXXXXXXXX          ",
"         XXXXXXXXX         XXXXXXXXX         XXXXXXXXX          ",
"         XXXXXXXXX         XXXXXXXXX         XXXXXXXXX          ",
"         XXXXXXXXX         XXXXXXXXX         XXXXXXXXX          ",
"         XXXXXXXXX         XXXXXXXXX         XXXXXXXXX          ",
"         XXXXXXXXX         XXXXXXXXX         XXXXXXXXX          ",
"         XXXXXXXXX         XXXXXXXXX         XXXXXXXXX          ",
"XXXXXXXXX         XXXXXXXXX         XXXXXXXXX         XXXXXXXXX.",
"XXXXXXXXX         XXXXXXXXX         XXXXXXXXX         XXXXXXXXX.",
"XXXXXXXXX         XXXXXXXXX         XXXXXXXXX         XXXXXXXXX.",
"XXXXXXXXX         XXXXXXXXX         XXXXXXXXX         XXXXXXXXX.",
"XXXXXXXXX         XXXXXXXXX         XXXXXXXXX         XXXXXXXXX.",
"XXXXXXXXX         XXXXXXXXX         XXXXXXXXX         XXXXXXXXX.",
"XXXXXXXXX         XXXXXXXXX         XXXXXXXXX         XXXXXXXXX.",
"XXXXXXXXX         XXXXXXXXX         XXXXXXXXX         XXXXXXXXX.",
"XXXXXXXXX         XXXXXXXXX         XXXXXXXXX         XXXXXXXXX.",
"         XXXXXXXXX         XXXXXXXXX         XXXXXXXXX          ",
"         XXXXXXXXX         XXXXXXXXX         XXXXXXXXX          ",
"         XXXXXXXXX         XXXXXXXXX         XXXXXXXXX          ",
"         XXXXXXXXX         XXXXXXXXX         XXXXXXXXX          ",
"         XXXXXXXXX         XXXXXXXXX         XXXXXXXXX          ",
"         XXXXXXXXX         XXXXXXXXX         XXXXXXXXX          ",
"         XXXXXXXXX         XXXXXXXXX         XXXXXXXXX          ",
"         XXXXXXXXX         XXXXXXXXX         XXXXXXXXX          ",
"         XXXXXXXXX         XXXXXXXXX         XXXXXXXXX          ",
"................................................................",
"................................................................",
"................................................................",
"................................................................"
};
