/* XPM */
static char *result[] = {
/* columns rows colors chars-per-pixel */
"64 64 66 1 ",
"  c #231D13",
". c #24211C",
"X c #242322",
"o c #232529",
"O c #26282D",
"+ c #262A32",
"@ c #242D3D",
"# c #213049",
"$ c #243250",
"% c #25395B",
"& c #233A63",
"* c #233F74",
"= c #26406F",
"- c #264173",
"; c #747474",
": c #787776",
"> c #777878",
", c #7C7C7C",
"< c #80807F",
"1 c #274581",
"2 c #284680",
"3 c #274883",
"4 c #264A8E",
"5 c #284B8C",
"6 c #254C94",
"7 c #284D94",
"8 c #264E9D",
"9 c #284F9A",
"0 c #27509F",
"q c #2C529A",
"w c #2953A5",
"e c #2655AD",
"r c #2955AB",
"t c #2B58AE",
"y c #2857B1",
"u c #2A59B3",
"i c #2B5CBB",
"p c #2B60BA",
"a c #2B5EC2",
"s c #2C60C5",
"d c #2D64CC",
"f c #2E66D3",
"g c #2E69D5",
"h c #2D67DA",
"j c #2E6ADC",
"k c #306DDC",
"l c #2F6CE2",
"z c #2F6EEA",
"x c #306DE5",
"c c #306FE9",
"v c #2E70E4",
"b c #2F70ED",
"n c #3173E6",
"m c #3173EC",
"M c #327AEB",
"N c #2F72F2",
"B c #3074F4",
"V c #337CF5",
"C c #3176FC",
"Z c #327AFF",
"A c #3484FF",
"S c #368AFF",
"D c #388FFF",
"F c #3993FF",
"G c #3A99FF",
"H c #808080",
/* pixels */
"HHHHHHHHHHHHHHHHHHHHHHHHHHHHHHHHHHHHHHHHHHHHHHHHHHHHHHHHHHHHHHHH",
"HHHHHHHHHHHHHHHHHHHHHHHHHHHHHHHHHHHHHHHHHHHHHHHHHHHHHHHHHHHHHHHH",
"HHHHHHHHHHHHHHHHHHHHHHHHHHHHHHHHHHHHHHHHHHHHHHHHHHHHHHHHHHHHHHHH",
"HHHHHHHHHHHHHHHHHHHHHHHHHHHHHHHHHHHHHHHHHHHHHHHHHHHHHHHHHHHHHHHH",
"HHHHHHHHHHHHHHHHHHHHHHHHHHHHHHHHHHHHHHHHHHHHHHHHHHHHHHHHHHHHHHHH",
"HHHHHHHHHHHHHHHHHHHHHHHHHHHHHHHHHHHHHHHHHHHHHHHHHHHHHHHHHHHHHHHH",
"HHHHHHHHHHHHHHHHHHHHHHHHHHHHHHHHHHHHHHHHHHHHHHHHHHHHHHHHHHHHHHHH",
"HHHHHHHHHHHHHHHHHHHHHHHHHHHHHHHHHHHHHHHHHHHHHHHHHHHHHHHHHHHHHHHH",
"HHHHHHHHHHHHHHHHHHHHHHHHHHHHHHHHHHHHHHHHHHHHHHHHHHHHHHHHHHHHHHHH",
"HHHHHHHHHHHHHHHHHHHHHHHHHHHHHHHHHHHHHHHHHHHHHHHHHHHHHHHHHHHHHHHH",
"HHHHHHHHHHHHHHHHHHHHHHHHHHHHHHHHHHHHHHHHHHHHHHHHHHHHHHHHHHHHHHHH",
"HHHHHHHHHHHHHHHHHHHHHHHHHHHHHHHHHHHHHHHHHHHHHHHHHHHHHHHHHHHHHHHH",
"HHHHHHHHHHHHHHHHHHHHHHHHHHHHHHHHHHHHHHHHHHHHHHHHHHHHHHHHHHHHHHHH",
"HHHHHHHHHHHHHHHHHHHHHHHHHHHHHHHHHHHHHHHHHHHHHHHHHHHHHHHHHHHHHHHH",
"HHHHHHHHHHHHHHHHHHHHHHHHHHHHHHHHHHHHHHHHHHHHHHHHHHHHHHHHHHHHHHHH",
"HHHHHHHHHHHHHHHHHHHHHHHHHHHHHHHHHHHHHHHHHHHHHHHHHHHHHHHHHHHHHHHH",
"HHHHHHHHHHHHHHHHHHHHHHHHHHHHHHHHHHH<qqqHHHHHHHHHHHHH<HHHHHHHHHHH",
"HHHHHHHHHHHHHHHHHHHHHHHHH,HHHHHHHHH<qFq<HHHHHHHHH,,,<HHHHHHHHHHH",
"HHHHHHHHqqqqqqqqqqqqqqqqqqqqqqqqqqqqqAq<HHHHHHHqq99qqqqqHHHHHHHH",
"HHHHqqqqqmZAASAAAAASSSZZZCNNcbcNbbNbbAAqqqqqqqqSSSASSAAqqqHHHHHH",
"<qqqqZSSAZZCZZZCCAZlauuuidfhllljjhfsw-pSSSDSSSZZZZCCCCCZqqqHHHHH",
",qDSZZCCCCCCCCCCZk%X X.... X .......@7CAChshZnhhkjxbZZZZCZqqHHHH",
"qqSCCCCCZCZC222Ax. XX ..........&3ubAbw.....&kClxlgiugBBCZSqqHHH",
"qBZCCCCCZAAS2&2Sxiirq77579wtahlCZASA-........$ZZCZABw07ukfMxqq:H",
"qZZCCCZA22222.&3ZASAAAAAAAAAAAVZZCA0..........2Sldhmhe8-pndmwqq<",
"qZZCCZA-2......-SCCCCCCCCCCCCCCCCCA5..........olZmZfdiae7ZZxxqq:",
"qACCCA22O......2ZCCCCCCCCCCCCCCCCCA7............ZCCZBmkdukCZcZqq",
"qACCZC2@.......2ACCCCCCCCCCCCCCCCCA7............CCCCCZZCmddkCxCq",
"qACCA2.........2ZZCCCCCCCCCCCCCCCCS7............CCCCCCCCZZmdgsmq",
"qACCA2.........2ACCCCCCCCCCCCCCCCCA7............CCCCCCCCCCZZCkVq",
"qSCZZ2.........2ZCCCCCCCCCCCCCCCCCA4............CCCCCCCCCCCCCCSq",
"qACZC2.........2ACCCCCCCCCCCCCCCCCA7............CCCCCCCCCCCCCCSq",
"qSCZZ2.........2ACCCCCCCCCCCCCCCCCA7............ZCCCCCCCCCCCCCS9",
"qACCZ-.........2ZCCZCCCCCCCCCCCCCCA7............CCCCCCCCCCCZCZSq",
"qACCS2.........2ACCBCCCCCCCCCCCCCCA6............CCCCCCCCCCCZCkVq",
"qACCA2.........2ACCCCCCCCCCCCCCCCCA6............CCCCCCCCCZNghaBq",
"qACCZ22........2ZCCCCCCCCBCCCCCCCCA6............CCCCCCZZmfdfBnBq",
"qAZCCA22+......2ACCCCCCCCCCCCCCCCCA6.......... .CCZZCNjfigCABBqq",
"qZZCCZZ22......2SCCCCCCCCCCCCCCCCCA4............CNjfdiay6CZnxqq:",
"qZZCCCZA222....2ZAZSAAAAAAAAAZZZCCS7...........AldhMhe8*imdmrqHH",
"qBZZCCCCZA-22.3Scddiew0qweuadxBCASSZ&  ..... .CACCACt97tkfMxqq;<",
"qqACCCCCCCZZ22-Az .............X=6pCSh.......hVzcxkitdmBmZSqqHHH",
"<qFAZCCCCCCCZBCCAd ............ ....#wCA....ClghklkcCZZZCZDqHHHH",
"<qqqmASAAZCZZZZCCAZfe00wwuaaddddssit6&iSSSSSAAAZCCZZCCZZASqqHHHH",
"HH<qqqqqqCZAASASAASDDSSAZZZCCCCCZCCCCAA9qqqqqqqSSAAASAABpqqHHHHH",
"HHHH<<<Hqqqqqqqqqq9qqqq9qqqqqqqqqqqqqAqHHHHHHHHqqqqqqqqqqqHHHHHH",
"HHHHHH<<HHHH<,,<<<HHHH<<HHHH<<HHHHHHqGqHHHHHHHHHHHHHHHHHHHHHHHHH",
"HHHHHHH<HHHHHHHHHHHHHHHHHHHHHHHHHHHHqqHHHHHHHHHHHHHHHHHHHHHHHHHH",
"HHHHHHHHHHHHHHHHHHHHHHHHHHHHHHHHHHHHHHHHHHHHHHHHHHHHHHHHHHHHHHHH",
"HHHHHHHHHHHHHHHHHHHHHHHHHHHHHHHHHHHHHHHHHHHHHHHHHHHHHHHHHHHHHHHH",
"HHHHHHHHHHHHHHHHHHHHHHHHHHHHHHHHHHHHHHHHHHHHHHHHHHHHHHHHHHHHHHHH",
"HHHHHHHHHHHHHHHHHHHHHHHHHHHHHHHHHHHHHHHHHHHHHHHHHHHHHHHHHHHHHHHH",
"HHHHHHHHHHHHHHHHHHHHHHHHHHHHHHHHHHHHHHHHHHHHHHHHHHHHHHHHHHHHHHHH",
"HHHHHHHHHHHHHHHHHHHHHHHHHHHHHHHHHHHHHHHHHHHHHHHHHHHHHHHHHHHHHHHH",
"HHHHHHHHHHHHHHHHHHHHHHHHHHHHHHHHHHHHHHHHHHHHHHHHHHHHHHHHHHHHHHHH",
"HHHHHHHHHHHHHHHHHHHHHHHHHHHHHHHHHHHHHHHHHHHHHHHHHHHHHHHHHHHHHHHH",
"HHHHHHHHHHHHHHHHHHHHHHHHHHHHHHHHHHHHHHHHHHHHHHHHHHHHHHHHHHHHHHHH",
"HHHHHHHHHHHHHHHHHHHHHHHHHHHHHHHHHHHHHHHHHHHHHHHHHHHHHHHHHHHHHHHH",
"HHHHHHHHHHHHHHHHHHHHHHHHHHHHHHHHHHHHHHHHHHHHHHHHHHHHHHHHHHHHHHHH",
"HHHHHHHHHHHHHHHHHHHHHHHHHHHHHHHHHHHHHHHHHHHHHHHHHHHHHHHHHHHHHHHH",
"HHHHHHHHHHHHHHHHHHHHHHHHHHHHHHHHHHHHHHHHHHHHHHHHHHHHHHHHHHHHHHHH",
"HHHHHHHHHHHHHHHHHHHHHHHHHHHHHHHHHHHHHHHHHHHHHHHHHHHHHHHHHHHHHHHH",
"HHHHHHHHHHHHHHHHHHHHHHHHHHHHHHHHHHHHHHHHHHHHHHHHHHHHHHHHHHHHHHHH",
"HHHHHHHHHHHHHHHHHHHHHHHHHHHHHHHHHHHHHHHHHHHHHHHHHHHHHHHHHHHHHHHH"
};
