/* XPM */
static char *result[] = {
/* columns rows colors chars-per-pixel */
"64 64 69 1 ",
"  c black",
". c #606160",
"X c gray38",
"o c #626161",
"O c #636161",
"+ c #616261",
"@ c #626262",
"# c #636262",
"$ c gray39",
"% c #646363",
"& c #636463",
"* c #646464",
"= c #656464",
"- c #646564",
"; c #656565",
": c #666565",
"> c #676565",
", c #656665",
"< c gray40",
"1 c #676666",
"2 c #666766",
"3 c #676767",
"4 c #686767",
"5 c #686868",
"6 c #696868",
"7 c #686968",
"8 c DimGray",
"9 c #6A6868",
"0 c #6A6969",
"q c #6A6A6A",
"w c #6B6A6A",
"e c gray42",
"r c #6C6B6B",
"t c #6D6B6B",
"y c #6A6C6A",
"u c #6C6C6C",
"i c #6D6C6C",
"p c #6D6D6D",
"a c #6E6D6D",
"s c #6D6F6C",
"d c gray43",
"f c #6F6E6E",
"g c #6F6F6F",
"h c #706F6F",
"j c gray44",
"k c #717070",
"l c #717171",
"z c #727171",
"x c #737171",
"c c #727272",
"v c #737272",
"b c gray45",
"n c #747070",
"m c #747272",
"M c #757272",
"N c #747373",
"B c #757373",
"V c #767272",
"C c #767373",
"Z c #747474",
"A c #757474",
"S c gray46",
"D c #767474",
"F c #777474",
"G c #767575",
"H c #777575",
"J c #767676",
"K c #777676",
"L c white",
/* pixels */
";;;;;**;**$$*$$$8gxGKDKKFKKFKKFKKHGKKGKGJKGJHKKHHKOOOOOOOGGGGGGA",
";;****;$$$;$$;$$<ezNGDKKFKKFKKFKKFKKFKKHGKKGKGJOOOOOOOHKKKKKKKKJ",
"*$$$***;$*;;;*;;*5qjZGDGHGKHKKFKKFKKFKKFKKFKOOOOOOOGJKGJHGJHKKHH",
"$*@$;**;;;*;;**;**<8udbADGGHSGHGKHKKDKKFOOOOOOOOFKKHGKKGKKGKGJKG",
"*;;;*;;*;;**;;*;;**;:4qpdlvzSSDGGHSJHOOOOOOOOFKKFKKFKKFKKFKKHGKK",
";*;;**;**;;*;;;;;;*;:%:>9tgdjcbSSOOOOOOOOKKGKHKKFKKFKKFKKFKKFKKF",
";**;;*;;**;:=::=::40eepgdlxkAOOOOOOOOOKGJKGJHKGKKGKHKKFKKFKKFKKF",
"*;==::=::40eeppeugglvcZAADOOOOOOOOHHMGKDGGGKKDJKGJHKGKKGKKGKHKKF",
">0eeppuugglvbZAbGAADSKGSGGOOOOOOOFKKCKHVHHCAKGSGGJKGJKGJGGGGHSGG",
"lbmNZAbGAADSGGGKGGGGJHKKDKKFOOOOOOOOOOOOOOOOOOODCAJAGSSJGSSGbSAA",
"AHSGKJKGGGGJKGKHKKDKKFKKFKKFKKnnOOOOOOOOOOOOOOOSAADxzzifarppeugd",
"KGKKGKHKKDKKFKKFKKFKKFKKFKKHGnnnnnnnnnGGGGGGHOOldppqe61::%::#%:4",
"FKKFKKFKKFKKFKKFKKFKKHGOOOOOOOOOOOOOnnGGAANbOOO61==::;$;;$$****$",
"FKKFKKFKKFKKFOOOOOOOOOOOOOOOOOOOOOOOnbldpu8OOO%;*;;*;;***$@;;;;$",
"FKKFKKHOOOOOOOOOOOOOOOOOOOOOOOOOOOOnn56=o#OOO***;;;**;$X*$***;;*",
"OOOOOOOOOOOOOOOOOOOOOOOOOOOOOOOAnnnnr1@X@*OO*;;;*;;*$$@@$$;;**;;",
"OOOOOOOOOOOOOOOOOOOOOnnnnnnnnnnnnnnnnnnnnOOO;*;;$$*@@$@*;**;;;*;",
"OOOOOOOOOOOOnnnnnnnnnnnnnnnnnnnnnnnnnnnnnOOnnn**@@$$****;;;*;;**",
"OOOOOOnnnnnnnnnnnnVHKCKKFKKHnnnnGKnnnnnnOOOnnnX$$***;;;;*;;**;;*",
"NnnnnnnnnnnJAKJGKGKKGHKKFKKnnnnnnnnnnnnnOOnn6=#$@*;**;;;**;;*;;;",
"nnnnnnJKKKKJHHKKHJGKJGKGnnnnnnnnnnnKHKGGOODNleu01=;*;*;;;*;;;;;;",
"nnHGDHSGSGJGJKKKKJHHKKKJnnnnnnnnnFKKFKKDOODGDDNcpp5<;**;;;;;;;;;",
"nnnnKHDFFADJASSSJGJKJHHKKKJGnnnnnnnnnnKFOOOKKDGDDbj64;$;;;;;;;;$",
"      LLLLLL      LLLLLL      LLLLLL      LLLLLL      LLLLLL    ",
"      LLLLLL      LLLLLL      LLLLLL      LLLLLL      LLLLLL    ",
"      LLLLLL      LLLLLL      LLLLLL      LLLLLL      LLLLLL    ",
"      LLLLLL      LLLLLL      LLLLLL      LLLLLL      LLLLLL    ",
"      LLLLLL      LLLLLL      LLLLLL      LLLLLL      LLLLLL    ",
"      LLLLLL      LLLLLL      LLLLLL      LLLLLL      LLLLLL    ",
"LLLLLL      LLLLLL      LLLLLL      LLLLLL      LLLLLL      LLLL",
"LLLLLL      LLLLLL      LLLLLL      LLLLLL      LLLLLL      LLLL",
"LLLLLL      LLLLLL      LLLLLL      LLLLLL      LLLLLL      LLLL",
"LLLLLL      LLLLLL      LLLLLL      LLLLLL      LLLLLL      LLLL",
"LLLLLL      LLLLLL      LLLLLL      LLLLLL      LLLLLL      LLLL",
"LLLLLL      LLLLLL      LLLLLL      LLLLLL      LLLLLL      LLLL",
"      LLLLLL      LLLLLL      LLLLLL      LLLLLL      LLLLLL    ",
"      LLLLLL      LLLLLL      LLLLLL      LLLLLL      LLLLLL    ",
"      LLLLLL      LLLLLL      LLLLLL      LLLLLL      LLLLLL    ",
"      LLLLLL      LLLLLL      LLLLLL      LLLLLL      LLLLLL    ",
"      LLLLLL      LLLLLL      LLLLLL      LLLLLL      LLLLLL    ",
"      LLLLLL      LLLLLL      LLLLLL      LLLLLL      LLLLLL    ",
"$@@$@**@$8gvAKGKKKKKJnnnnOOOOOOOOOOOnnnnlgljfzvmSOOAAADASKKKKKKK",
"**;;;**;=8zvGKGJHKKnOOOOOOOOOOnnnnnnSGZSGcSAADSGGOOGGADGGJGKKKGJ",
";;;;;;;;=8kNGKKGOOOOOOOOOOnnnnnnGGJGGJGGJKGGGGJKGOOKBCCGJAKHFFHG",
";;;;;;*@#8kBGOOOOOOOOnnnnnnnKKGKKGKKGKKGKHKKDKKCOOODJAGKKHKKKKKJ",
";*;;**$@@3gmOOOOOnnnnnnnKKFKKFKKFKKFKKFKKFKKCKHCOOAJDJKGKKJGKKKG",
";*$&.+$$X*OOOODnnnnnnKKFKKFKKFKKFKKFKKFKKCKHCDKOOOJHHHGGKKGHFDHK",
"**@$-$@X*OOOOZGnnnnKDKKFKKFKKFKKFKKFKKCKHDAKAJGOOJSKHKKHKKKKKKKK",
"273--*@@$OOOqdvnnnnnnnJKGKKGKKGKKGKGGHGAKZJGJKOOOFKKHGKKKJGKKKnn",
"s7;;*;$**;OOOOOOOnnnnnnnnnnnnnnnnnnnnnnnnnnnnOOOnnnnnnnnnnnnnnnn",
"y;;**;*;;*OOOOOOOOOOOOOOOOOOOnnnnnnnnnnnnnnnnOOnnnnnnnnnnnnnnnnn",
",*;*;;;**;;*;;@$OOOOOOOOOOOOOOOOOOOOOOOOOOOOOOOnnnnnnnnnnnnGAlpe",
"*;;;;;;$*;*$*$@*$$;;$*:=:=:0OOOOOOOOOOOOOOOOOOOOOOOOOOOOOOOOOOOO",
",;;;;;**;;$****;;**;;;**;40kNnnnnnnnnnnnnnnOOOOOOOOOOOOOOOOOOOOO",
"-;;;;;$**$;****;;;;*nnnnnnnnnnnnnnnnnnDKKGOOOKHGKKKKJSnnnnn@@;;*",
"&;;*;*$@$***;;nnnnnnnnnnnnnnnnKKKKGGKKGKHKOOKKDJKKKGAnnnnnn;*;;;",
"$*;*$***$;;*nnnnnnnnncNZGJSGKKKSDHDGKHKKFOOOGKKKKHJnnnnn;@;;;;;;",
"*$*$*****;nnnnn;10kNBGGGGKKKSGHBDKKGJHKKOOODJKnnnnnnnn8<**;;;;;*",
"$$$$$$*;*nnnn*;qdcASDGKKKJGKGGKKSKHKKFKOOOnnnnnnnnnnw1@$;;;;OOOO",
"$*$*;**;;nnn;40kAAGJGKKKKAHHDGKnnnnnnnOOOnnnnnnSAcd8<OOOOOOOOOOO",
"*;;;;;;*;nnnnnnnnnnnnnnnnnnnnnnnnnnnnnOOnKGSJGOOOOOOOOOOOOOOO@@*",
";**;***@@*1nnnnnnnnnnnnnnnnnnnnnKKHGKOOOOOOOOOOOOOOOOO;;*$*$***;",
"**;**;*$*8pmSAGGGKHGBKAJKHKKDKKHGKGJOOOOOOOOOOO:***;;*$*$@@$*;;*",
";;*;;*;5qlNGDADHDGKZJKKGJHKKDKKOOOOOOOOOOvhw4;**$*;;*$$$@$;*;;;;"
};
