/* XPM */
static char *result[] = {
/* columns rows colors chars-per-pixel */
"64 64 108 2 ",
"   c #1E3C1D",
".  c #21371F",
"X  c #20391F",
"o  c #243323",
"O  c #243B23",
"+  c #283C26",
"@  c #2A372A",
"#  c #2C3A2B",
"$  c #0E5D07",
"%  c #0F5B09",
"&  c #11560C",
"*  c #115A0B",
"=  c #174714",
"-  c #1A4716",
";  c #164C12",
":  c #184C15",
">  c #1C4219",
",  c #1C4818",
"<  c #155311",
"1  c #1A5616",
"2  c #165E10",
"3  c #185A13",
"4  c #1D5119",
"5  c #1D5D18",
"6  c #22461F",
"7  c #204B1C",
"8  c #21531E",
"9  c #0B6503",
"0  c #096A00",
"q  c #0F6008",
"w  c #0F6B08",
"e  c #13640C",
"r  c #126C0A",
"t  c #1A6215",
"y  c #176E10",
"u  c #1A6C13",
"i  c #1F6D18",
"p  c #1E7117",
"a  c #207119",
"s  c #244222",
"d  c #274A24",
"f  c #2A4229",
"g  c #2E4F2B",
"h  c #2C5429",
"j  c #315E2E",
"k  c #344333",
"l  c #3C4A3C",
"z  c #375534",
"x  c #395337",
"c  c #3C513B",
"v  c #256120",
"b  c #2B6F25",
"n  c #2E652B",
"m  c #2D6828",
"M  c #287322",
"N  c #2E7428",
"B  c #34772F",
"V  c #3A6B36",
"C  c #3D633A",
"Z  c #3C6839",
"A  c #367530",
"S  c #397834",
"D  c #3D7739",
"F  c #3D7A38",
"G  c #415D3F",
"H  c #40603D",
"J  c #426D3F",
"K  c #417B3D",
"L  c #465345",
"P  c #485247",
"I  c #445843",
"U  c #4D584C",
"Y  c #456742",
"T  c #446B41",
"R  c #4E634C",
"E  c #4F6E4D",
"W  c #506E4E",
"Q  c #497C45",
"!  c #556355",
"~  c #536951",
"^  c #5A6D59",
"/  c #5C7C59",
"(  c #617E5E",
")  c #646E63",
"_  c #627161",
"`  c #697C67",
"'  c #6C756B",
"]  c #6B7A69",
"[  c #747C73",
"{  c #51804E",
"}  c #5A8356",
"|  c #5F845B",
" . c #648561",
".. c #6A8767",
"X. c #6A8867",
"o. c #6A8568",
"O. c #6D886B",
"+. c #71896F",
"@. c #758474",
"#. c #738B72",
"$. c #788C77",
"%. c #7A8279",
"&. c #7D8E7C",
"*. c #808A7F",
"=. c #828F81",
"-. c #859084",
";. c #889187",
":. c #8A9189",
/* pixels */
"0 M } #.&.:.;.;.*.#.} M 0 0 0 w =   . o o o o o   % 9 0 y B  .#.&.&.&.#. .B y 0 $ & - > > > - & $ M } #.=.;.;.;.=.#.} M 0 0 0 0 ",
"r B  .&.;.:.:.:.;.&. .B r 0 9 %   . o o o o o o   ; 9 0 M } #.&.;.;.;.=.#.} M 9 & >   . .       3 A  .&.;.:.;.:.;.&. .B w 0 0 0 ",
"w B  .&.;.:.:.:.;.&. .B w 0 0 &   o o o o o o o . ; 9 9 B  .&.;.;.:.:.;.&. .B t =   o o o o o . d V  .&.;.:.:.:.;.&. .B w 0 0 0 ",
"w B  .&.;.:.:.:.;.&. .B w 0 0 &   o o o o o o o o   % w B  .&.;.;.:.:.;.&. .A 2   . o o o o o o + x  .&.;.:.:.;.;.&. .B w 0 0 0 ",
"0 M } +.*.;.;.;.=.#.} M 9 0 0 %   . o o o o o @ o   & w A  .&.;.:.:.;.;.&. .A 3 > . o o o o o @ . x / @.=.;.;.;.=.#.} M 0 0 0 0 ",
"0 y B  .#.&.&.&.#. .B y 0 0 0 9 =   . o o o o o . > & 9 M } #.=.;.;.;.=.#.} M %   . o o o o o o o f G  .#.&.&.&.#. .B y 0 0 0 0 ",
"0 0 p B }  . . .} B p 9 0 0 0 9 ;   o o @ o o o . > & 0 y B  .#.&.&.&.#. .A y %   . o o o o o o o o g V }  . . .} B p 0 0 0 0 0 ",
"0 0 w y M B B B M y 0 0 0 0 0 0 %   o o o o o . X - % 0 9 p B }  . . .} A i 0 9 ; o o o o o o o o . 6 5 M A B B M y 0 0 0 0 0 0 ",
"0 0 0 0 9 w w w 0 0 0 0 0 0 0 0 9 & > X X . X   > & 9 0 0 0 r M B B B M y 0 0 0 $ = . o o o o o o . > & 9 w w w 0 0 0 0 0 0 0 0 ",
"0 0 0 0 0 0 0 0 0 0 0 0 0 0 0 0 0 9 & , > > > - % q 0 0 0 0 0 0 w w w 0 0 0 0 0 0 & > . o o o o o   , % 0 0 0 0 0 0 0 0 0 0 0 0 ",
"0 0 0 0 0 0 0 0 0 0 0 0 0 0 0 0 0 0 9 % & < & % 9 9 0 0 0 0 0 0 0 0 0 0 0 0 0 0 0 0 & >   . . .   > % 9 0 0 0 0 0 0 0 9 0 9 0 0 ",
"0 0 0 0 0 0 0 0 0 0 0 0 0 0 0 0 0 0 9 w w w 9 0 0 0 0 0 0 0 0 9 0 9 0 0 0 0 0 0 0 0 $ & , > > > , & q 0 0 0 0 0 0 0 q % & % % 9 ",
"0 0 0 0 0 0 9 % % < % % 9 9 0 0 0 y M B B B M y 0 0 0 0 0 0 9 % & & & % 9 0 0 0 0 0 0 9 % & & & % 9 9 w w w 0 0 q & =   > > , & ",
"0 0 0 0 0 q & - > > > - % 9 0 9 p B }  . . .} B p 0 0 0 0 $ & = > > > , & $ 0 0 0 0 0 0 0 0 0 9 9 r M B B B M u & >   . X .   > ",
"0 0 0 0 9 & >   X . X   > & 9 y B  .#.&.&.&.#. .A y 0 0 $ %     X X . X > & 9 0 0 0 0 0 0 0 0 0 p B }  . . .} V h   o o o o . X ",
"0 0 0 0 % , X o o o o o X - % M } #.-.:.;.;.=.#.} M 0 0 $     o o o o .   - % 0 0 0 w w w 0 0 y B  .#.&.&.&.#. .I f o o @ o o X ",
"0 0 0 9 % > O o o o o o o o 3 A ..*.:.:.:.:.:.-.o.A w 0 &   o o o o o o . > & 9 y M B B B M y N } #.-.;.;.;.=.#._ x o o o o o o ",
"0 0 0 0 <   o o o o o o o o 1 D +.;.:.:.:.:.:.:.+.F r 0 &   o o o o o o o   < i B }  . . .} S K  .&.;.;.:.:.;.&.] I @ o @ o o o ",
"0 0 0 w 4 @ @ o o o o o o o 8 Q *.;.:.:.:.:.:.:.&.Q r 9 ; . o o o o o o o . 8 A  .#.&.&.&.#. .{ X.&.;.:.:.:.;.&.` Y @ o o o o   ",
"0 y M B C L l # @ o o @ o o 7 Q &.-.:.:.:.:.:.;.$.Q r 9 ;   o o o o o o o . j } #.&.;.;.;.=.#.X.O.&.;.:.:.:.;.&.` c s o . .   , ",
"p A /  .` ' ) L k @ o o o O 4 D #.;.:.:.:.:.:.:.+.F w 0 ;   o o o o o o o O Z  .&.;.;.:.:.;.&.O.X.#.=.;.;.;.&.#./ n , > > > - % ",
"B  .#.&.&.*.[ ' P # o o o O , A X.*.:.:.:.:.:.*.X.B w 0 = o o o o o o o o + C  .&.;.:.:.;.;.&.X.{  .#.&.&.&.#. .A u % % & & % 9 ",
"} #.=.;.:.:.=.[ ) l o o o o ; M } $.*.:.;.;.-.$.} M 9 9 ;   o o o o o o o + Z  .&.;.:.:.;.;.&. .K F }  . . .} B p 0 0 9 9 0 9 0 ",
" .&.;.:.:.:.:.=.' P @ o o   < u B  .#.&.&.&.#. .B r 0 9 <   o o o @ o o o   n } #.=.;.;.;.=.#.} M y M B B B M y 0 0 0 0 0 0 0 0 ",
" .&.;.;.:.:.;.=.' P @ o o > & 9 p B }  . . .} B p 0 0 0 &   . o o @ o o o   2 B  .#.&.&.&.#. .B y 0 0 w w w 0 0 0 0 0 0 0 0 0 0 ",
" .&.;.:.:.:.;.&.' P @ o   = % 0 0 y M B B B M y 0 0 0 0 % ,   o o o o o     * u B }  . . .} B p 0 0 0 0 0 0 0 0 0 0 0 0 0 0 0 0 ",
"} #.=.;.;.;.=.%.) l o     & 9 0 0 0 0 r w w 0 0 0 0 0 0 9 * >   o o o   > & 9 0 y M B B B M y 0 0 0 0 0 0 0 0 0 9 9 0 9 0 0 0 0 ",
"B  .#.&.&.&.@.] c d > - & 9 0 0 0 0 0 0 0 0 0 0 0 0 0 0 0 % * : o .   = & $ 0 0 0 0 w w w 0 0 0 0 0 0 0 q % & & % % 0 0 0 0 0 0 ",
"p B }  . . .} A v * * % 9 0 0 0 0 0 0 0 9 0 9 0 0 0 0 0 0 0 9 % & & & % 9 0 0 0 0 9 0 0 0 0 0 0 0 0 0 q & - > > > = % $ 0 0 0 0 ",
"0 y M B B B M y w 9 0 0 0 0 0 0 0 0 9 % & & & % 9 0 0 0 0 0 w w r 9 0 0 0 0 0 0 0 0 9 0 0 0 0 0 0 0 9 % >   . . .     & 0 0 0 0 ",
"0 0 0 w w w 0 0 0 0 0 0 0 0 0 0 0 9 & - > > > , & 9 9 9 y M B B B M r w 0 0 9 * & & & % 0 9 0 0 0 0 % - . o o o . o   = $ 9 0 0 ",
"0 0 0 0 0 0 0 0 0 0 0 0 0 0 0 0 w w >   o X .   > & 9 i B }  . . .} A p 0 $ & - > > > = & 9 0 0 0 9 &   o o o o o o .   & 0 0 0 ",
"0 0 0 0 0 0 0 0 0 0 0 0 0 0 0 0 &   o o o o o o   = t B  .#.=.=.&.#. .B t & >   o o o o . ; 9 0 0 9 &   o @ o o o o o   ; 9 0 0 ",
"0 0 0 0 0 0 0 0 0 9 0 0 0 0 0 9 & o o o o o o o o   n } #.-.;.:.:.=.$.} m :   o o o o o     $ 9 0 9 =   o o o o o o o o ; 9 0 0 ",
"0 0 0 0 q $ & & & % 9 0 0 0 0 0 ;   o o o o o o o s Z O.=.:.:.:.:.:.=.o.V 6 o o o o o o     & 9 0 $ ;   o o o o o o o o ; 9 0 0 ",
"0 0 0 q & , > >   = % $ 0 0 0 9 =   o o o o o o o + T +.;.:.:.:.:.:.=.#.J O o o o o o o .   & $ 0 9 &   o o o o o o o o & 0 0 0 ",
"0 0 0 & >   X o       & 9 0 0 9 ; . . o o o o o o + E $.;.:.:.:.:.:.=.&.W + o o o o o o o   ; 9 0 0 &   . o o o o o .   & 0 0 0 ",
"0 0 % = X . o o o .   = % 0 0 9 ;   o o o o o o o O E &.;.:.:.:.:.:.:.&.E + o o o o o o o   = 9 0 0 % = . . o o o . . = % 9 0 0 ",
"0 0 &   o o o o o o . > & 9 0 9   . o o o o o o o + Y +.;.:.:.:.:.:.;.+.J O o o o o o o o o = 9 0 0 $ %     . . . . > % 9 0 0 0 ",
"0 0 & > o o o o o o . > & 0 0 9 ; o o o o o o o o + C o.=.:.:.:.:.:.=.o.V o o o o o o o o o   % 0 0 0 $ % = > > > - & $ 0 0 0 0 ",
"0 0 & > . o o o o o . > & 0 0 0 ;   o o o o o o o X j } $.=.;.;.:.-.#.} n   . o o o o o o o   & 0 0 0 0 9 % & % & % 9 0 0 0 0 0 ",
"0 0 % -   . o o o . X , % 0 0 9 ; . o o o o o o o . 8 A  .#.&.&.*.#. .B u = . o o o o o o o   & 0 0 0 0 0 0 0 0 w 9 w 0 0 0 0 0 ",
"0 0 9 & >   . . .   > & 9 0 0 9 ; . . o o o o o o X ; i B }  . . .} B p 9 <   o o @ o o o   > & 0 0 0 0 0 9 y M A B B M y 0 0 0 ",
"0 w w 2 3 - >   > = & $ 0 0 0 9 &   . o o o o o o   & 9 y M B B B M y 0 0 % - . o o o o o   - % 0 0 0 0 w p B }  . . .} B p w 0 ",
"M B B B b 5 & % & % 9 0 0 0 0 9 %   . o o o o o .   & 9 0 0 w w r 0 0 0 0 9 & > o o . .   > & 9 0 0 0 0 y B  .#.&.&.&.#. .B y 0 ",
"}  . . .} B i 9 0 0 0 0 0 0 0 0 $       o o o o X - $ 0 0 0 0 0 0 0 0 0 0 0 $ & =   > > - & $ 0 0 0 0 0 M } #.&.;.;.;.=.#.} M 0 ",
"#.&.&.&.#. .A y 0 0 0 0 0 0 0 0 $ &     . . o o > & 9 0 0 0 0 0 0 0 0 0 0 0 0 9 % & & & % 0 0 0 0 0 0 w B  .&.;.:.:.:.;.&. .B w ",
"=.;.;.;.&.#.} M 0 0 0 0 0 0 0 0 0 $ & =         & 9 0 0 0 0 0 0 0 0 0 0 0 0 0 0 0 9 0 9 0 9 0 0 0 0 0 w B  .&.;.:.:.;.;.&. .B w ",
";.:.:.:.;.&. .B w 0 0 0 0 0 0 0 0 0 9 % & & & $ 9 0 0 0 0 0 0 9 % & & & % 9 0 0 0 0 0 0 0 0 0 0 0 w w y A  .&.;.:.:.:.;.&. .B w ",
";.:.:.:.;.&. .B w 0 0 0 0 0 0 0 0 0 0 0 9 0 9 9 0 0 0 0 0 0 $ & , > > > - & 9 9 0 0 0 0 0 0 0 y M B B B K | #.*.;.;.:.&.#.} M 0 ",
";.:.:.:.;.&. .B w 0 0 0 9 9 0 0 0 0 0 0 0 0 0 w w w 0 0 0 9 & >   . . .     & 9 0 0 0 0 0 0 a B }  . . .| { o.#.&.&.&.#. .B y 0 ",
"&.;.;.;.=.#.} M 0 0 9 q % & % % 9 0 0 0 0 y M B B B M y 9 % - X . o o o .   - % 0 0 0 0 0 y B  .#.&.&.=.#.o.{ |  . . .} B p 0 0 ",
"#.&.&.&.#. .B y 0 9 & , > > > > & $ 0 0 p B }  . . .} B i <   o o o o o o . > % 0 0 0 0 0 M } #.-.;.:.:.-.$.| F A B B M y 0 0 0 ",
"}  . . .} B p w q 3 6   X . X   > & 9 y B  .#.&.&.&.#. .A 8 . o o o o o o o   & 0 0 0 0 w B X.*.:.:.:.:.;.-.o.A y r w 0 0 0 0 0 ",
"M B B B N p N B V H x # o o o o   , * M } #.-.;.;.:.-.$.( x o o o o o o o o   % 0 0 0 0 w F #.;.:.:.:.:.:.;.#.T 3 % 9 0 0 0 0 0 ",
"0 w r w p B }  . .] ) P k @ o o . , 3 A  .&.:.:.:.:.:.;.@.R @ o o o o o o o > e 0 0 0 0 0 { &.;.:.:.:.:.:.;.&.~ s - * w 0 0 0 0 ",
"0 0 0 y B  .#.&.&.*.[ ' P # @ o . > 3 A o.=.:.:.:.:.:.;.&.^ k o o o o o o o = $ 0 0 0 0 r { &.-.:.:.:.:.:.:.&.! +   > & 9 0 0 0 ",
"0 0 0 M } #.=.;.:.:.-.[ ) l o o . , 3 A O.;.:.:.:.:.:.:.=.[ c o o @ o o o   < 9 0 0 0 0 w B #.-.:.:.:.:.:.:.[ U @ o   - % 0 0 0 ",
"0 0 w B  .&.;.:.:.:.-.*.' L @ o   , * N o.=.:.:.:.:.:.:.-.[ I + o o o o   = % 9 0 0 0 0 w B O.-.:.:.:.:.:.=.[ P @ o O > & 0 0 0 ",
"0 0 w B  .&.;.:.:.:.:.*.' L @ X > & 9 p { &.;.:.:.:.:.:.=.o.G + o o o o   & 9 0 0 0 0 0 0 M } #.=.:.:.:.:.[ ) l o o . , & 0 0 0 ",
"0 0 w B  .&.;.;.:.:.;.*.] G 6 - & q 0 w K #.-.:.:.:.:.:.&. .V 7 > > > = & $ 9 0 0 0 0 0 0 r B  .@.&.=.&.%.' L # o o o > & 0 0 0 ",
"0 0 0 M } #.=.;.;.;.=.+./ n & % 0 0 0 0 M | $.-.:.:.;.-.#./ b % % & & % 9 9 0 0 0 0 0 0 0 w p B }  .` ] _ I k o o o   = % 0 0 0 ",
"0 0 0 y B  .#.&.&.&.#. .A u 0 0 0 0 0 0 y B  .#.&.&.&.#. .B y 0 0 0 0 0 0 0 0 0 0 0 0 0 0 0 9 r M B A V z f O o     > & 9 9 0 0 ",
"0 0 0 0 p B }  . . .} B p 0 0 0 0 0 0 0 0 p B }  . . .} B i 0 0 0 0 0 0 0 0 0 0 0 0 0 0 0 0 0 0 0 w w e & - > > > - & 9 9 0 0 0 "
};
