/* XPM */
static char *result[] = {
/* columns rows colors chars-per-pixel */
"64 64 207 2 ",
"   c #7A7F4F",
".  c #6B6B5B",
"X  c #6C6E5E",
"o  c #6D6E5E",
"O  c #6D6F5F",
"+  c #737555",
"@  c #737757",
"#  c #747858",
"$  c #787C5C",
"%  c #606160",
"&  c gray38",
"*  c #636161",
"=  c #616261",
"-  c #626261",
";  c #626262",
":  c #636262",
">  c gray39",
",  c #646363",
"<  c #636463",
"1  c #646464",
"2  c #656464",
"3  c #646564",
"4  c #656565",
"5  c #666565",
"6  c #676565",
"7  c #656665",
"8  c gray40",
"9  c #676666",
"0  c #666766",
"q  c #676767",
"w  c #686666",
"e  c #686767",
"r  c #696767",
"t  c #686868",
"y  c #696868",
"u  c #686968",
"i  c DimGray",
"p  c #6A6868",
"a  c #6A6969",
"s  c #6B6969",
"d  c #686B68",
"f  c #696A69",
"g  c #6A6A6A",
"h  c #6B6A6A",
"j  c gray42",
"k  c #6C6B6B",
"l  c #6D6B6B",
"z  c #6A6C6A",
"x  c #6C6C6C",
"c  c #6D6C6C",
"v  c #6C6D6C",
"b  c #6D6D6D",
"n  c #6E6D6D",
"m  c #6D6F6C",
"M  c gray43",
"N  c #6F6E6E",
"B  c #6F6F6F",
"V  c #706F6F",
"C  c #7B7969",
"Z  c #7D7D6D",
"A  c #7D7E6E",
"S  c #7D7F6F",
"D  c #7E7E6E",
"F  c #7E7F6F",
"G  c gray44",
"H  c #717070",
"J  c #717171",
"K  c #727171",
"L  c #737171",
"P  c #727272",
"I  c #737272",
"U  c gray45",
"Y  c #747070",
"T  c #747272",
"R  c #757272",
"E  c #747373",
"W  c #757373",
"Q  c #767272",
"!  c #767373",
"~  c #757473",
"^  c #747474",
"/  c #757474",
"(  c gray46",
")  c #767474",
"_  c #777474",
"`  c #767575",
"'  c #777575",
"]  c #767676",
"[  c #777676",
"{  c #7A8050",
"}  c #7C8252",
"|  c #7E8353",
" . c #919C3C",
".. c #919E3E",
"X. c #919E3F",
"o. c #99A636",
"O. c #99A839",
"+. c #A7BA2B",
"@. c #A8BA2A",
"#. c #A8BB2C",
"$. c #AABD2E",
"%. c #A0AF3F",
"&. c #A2AE3F",
"*. c #A2AF3F",
"=. c #A0B030",
"-. c #A0B031",
";. c #A9B838",
":. c #A9BA3A",
">. c #AABA3A",
",. c #AABA3B",
"<. c #AABB3B",
"1. c #B7CD1E",
"2. c #B7CE1F",
"3. c #B8CE1E",
"4. c #B8CF1F",
"5. c #BED718",
"6. c #BED818",
"7. c #BED819",
"8. c #BFD91A",
"9. c #AFC325",
"0. c #B0C424",
"q. c #B0C525",
"w. c #B3C829",
"e. c #B6CA2A",
"r. c #B6CB2C",
"t. c #B7CB2C",
"y. c #B7CC2C",
"u. c #B9D021",
"i. c #BDD323",
"p. c #BDD424",
"a. c #BDD425",
"s. c #BDD525",
"d. c #BED525",
"f. c #AFC031",
"g. c #AFC131",
"h. c #AFC232",
"j. c #B0C232",
"k. c #B0C233",
"l. c #B1C233",
"z. c #B1C333",
"x. c #B0C334",
"c. c #C0DA1B",
"v. c #C2DB1C",
"b. c #C2DC1C",
"n. c #C3DC1C",
"m. c #C3DD1D",
"M. c #C3DD1E",
"N. c #CDEB0C",
"B. c #CEEC0C",
"V. c #D0ED0E",
"C. c #D0ED0F",
"Z. c #D0EE0E",
"A. c #D0EE0F",
"S. c #D5F506",
"D. c #D6F606",
"F. c #D6F607",
"G. c #D7F707",
"H. c #DDFF00",
"J. c #C6E112",
"K. c #C6E212",
"L. c #C6E213",
"P. c #C9E415",
"I. c #C9E515",
"U. c #C9E516",
"Y. c #CAE616",
"T. c #818949",
"R. c #828A4B",
"E. c #828B4B",
"W. c #899343",
"Q. c #8A9545",
"!. c #909B4B",
"~. c #848A5A",
"^. c #888B5B",
"/. c #898E5E",
"(. c #8A8E5E",
"). c #8A8F5F",
"_. c #8E9354",
"`. c #8F9858",
"'. c #959F50",
"]. c #909858",
"[. c #94A040",
"{. c #96A242",
"}. c #98A545",
"|. c #99A646",
" X c #9BA646",
".X c #9DA848",
"XX c #9CA849",
"oX c #9CA949",
"OX c #9DA949",
"+X c #9DA94A",
"@X c #9DAA4A",
"#X c #95A050",
"$X c #96A051",
"%X c #97A151",
"&X c #A3B040",
"*X c #A3B141",
"=X c #A3B042",
"-X c #A3B142",
";X c #A3B242",
":X c #818262",
">X c #828565",
",X c #828666",
"<X c #838666",
"1X c #848666",
"2X c #848767",
"3X c #8A9060",
"4X c #8B9060",
/* pixels */
"4 4 4 4 4 1 1 4 1 1 > > 1 > > > i B L ` [ ) [ [ _ [ [ _ [ [ _ [ [ ' ` [ [ ` [ ` ] [ ` ] ' [ [ ' ' [ * * * * * * * ` ` ` ` ` ` / ",
"4 4 1 1 1 1 4 > > > 4 > > 4 > > 8 j K E ` ) [ [ _ [ [ _ [ [ _ [ [ _ [ [ _ [ [ ' ` [ [ ` [ ` ] * * * * * * * ' [ [ [ [ [ [ [ [ ] ",
"1 > > > 1 1 1 4 > 1 4 4 4 1 4 4 1 t g G ^ ` ) ` ' ` [ ' [ [ _ [ [ _ [ [ _ [ [ _ [ [ _ [ * * * * * * * ` ] [ ` ] ' ` ] ' [ [ ' ' ",
"> 1 ; > 4 1 1 4 4 4 1 4 4 1 1 4 1 1 8 i x M U / ) ` ` ' ( ` ' ` [ ' [ [ ) [ [ _ * * * * * * * * _ [ [ ' ` [ [ ` [ [ ` [ ` ] [ ` ",
"1 4 4 4 1 4 4 1 4 4 1 1 4 4 1 4 4 1 1 4 5 e g b M J I K ( ( ) ` ` ' ( ] ' * * * * * * * * _ [ [ _ [ [ _ [ [ _ [ [ _ [ [ ' ` [ [ ",
"4 1 4 4 1 1 4 1 1 4 4 1 4 4 4 4 4 4 1 4 5 , 5 6 p l B M G P U ( oX* * * * * * * * [ [ ` [ ' [ [ _ [ [ _ [ [ _ [ [ _ [ [ _ [ [ _ ",
"4 1 1 4 4 1 4 4 1 1 4 5 2 5 5 2 5 5 e a j j b B M J L H / * * + H.+ * * * * [ ` ] [ ` ] ' [ ` [ [ ` [ ' [ [ _ [ [ _ [ [ _ [ [ _ ",
"1 4 2 2 5 5 2 5 5 e a j j b b j x B B J I P ^ / / ) * * * * * =.H.=.' ' R ` [ ) ` ` ` [ [ ) ] [ ` ] ' [ ` [ [ ` [ [ ` [ ' [ [ _ ",
"6 a j j b b x x B B J I U ^ / U ` / >XZ ( [ ` ( ` ` * * * * * N.H.C.[ [ ! [ ' Q ' ' ! / [ A ,X` ` ] [ ` ] [ ` ] ` ` ` ` ' ( ` ` ",
"J U T E ^ / U ` / / ) ( ` ` ` [ ` ` A A.3X' [ [ ) [ [ _ * *  .H.H.H.W.* * * * * * * * *   N.. ) ! / ] / ` ( ( ] ` ( ( ` U ( / / ",
"/ ' ( ` [ ] [ ` ` ` ` ] [ ` [ ' [ [ ) G.H..X[ [ _ [ [ _ [ [ v.H.H.H.5.* * * * * * * *  .H.D.* ( / / ) L K K c N n k b b j x B M ",
"[ ` [ [ ` [ ' [ [ ) [ [ _ [ [ _ [ [ _ m.H.H.t.F _ [ [ ' ` :XH.H.H.H.H.:XY Y ` ` ` A r.H.H.6.* J M b b g j y 9 5 5 , 5 5 : , 5 e ",
"_ [ [ _ [ [ _ [ [ _ [ [ _ [ [ _ [ [ _ z.H.H.H.J.  * * * * @.H.H.H.H.H.@.Y Y ` ` /.U.H.H.H.@.* y 9 2 2 5 5 4 > 4 4 > > 1 1 1 1 > ",
"_ [ [ _ [ [ _ [ [ _ [ [ _ * * * * * * o.H.H.H.H.S.W.* * * S.H.H.H.H.H.S.Y U J !.F.H.H.H.H. ., 4 1 4 4 1 4 4 1 1 1 > ; 4 4 4 4 > ",
"_ [ [ _ [ [ ' * * * * * * * * * * * * T.H.H.H.H.H.H.+.*  .H.H.H.H.H.H.H. Xt $.H.H.H.H.H.H.E.1 1 4 4 4 1 1 4 > & 1 > 1 1 1 4 4 1 ",
"* * * * * * * * * * * * * * * * * * * * H.H.H.H.H.H.H.J.5.H.H.H.H.H.H.H.c.L.H.H.H.H.H.H.H.4 4 4 1 4 4 1 > > ; ; > > 4 4 1 1 4 4 ",
"* * * * * * * * * * * * * * * * * * * * B.H.H.H.H.H.H.H.H.H.H.H.H.H.H.H.H.H.H.H.H.H.H.H.B.1 4 4 > > 1 ; ; > ; 1 4 1 1 4 4 4 1 4 ",
"* * * * * * * * * * * * Y Y Y Y Y Y Y Y n.H.H.H.H.H.H.H.H.H.H.H.H.H.H.H.H.H.H.H.H.H.H.H.n.Y 1 1 ; ; > > 1 1 1 1 4 4 4 1 4 4 1 1 ",
"* * * * * * Y Y C i.v.f.&._.:XY Y Y Q ' <.H.H.H.H.H.H.H.H.H.H.H.H.H.H.H.H.H.H.H.H.H.H.H.;.Y & > > 1 @ R.O.#.7.4.X 4 4 1 1 4 4 1 ",
"E Y Y Y Y Y Y Y Y :XG.H.H.H.H.H.M.a.,.+Xk.H.H.H.H.H.H.H.H.H.H.H.H.H.H.H.H.H.H.H.H.H.H.H.$.X.-.2.7.H.H.H.H.H.D.# 1 1 4 4 1 4 4 4 ",
"Y Y Y Y Y Y ] [ [ [ 4XG.H.H.H.H.H.H.H.H.H.H.H.H.H.H.H.H.H.H.H.H.H.H.H.H.H.H.H.H.H.H.H.H.H.H.H.H.H.H.H.H.H.D.} 4 4 1 4 4 4 4 4 4 ",
"Y Y ' ` ) ' ( ` ( ` ] OXH.H.H.H.H.H.H.H.H.H.H.H.H.H.H.H.H.H.H.H.H.H.H.H.H.H.H.H.H.H.H.H.H.H.H.H.H.H.H.H.H.Q.1 4 4 4 4 4 4 4 4 4 ",
"Y Y Y Y [ ' ) _ _ / ) ] *XH.H.H.H.H.H.H.H.H.H.H.H.H.H.H.H.H.H.H.H.H.H.H.H.H.H.H.H.H.H.H.H.H.H.H.H.H.H.H.[.4 > 4 4 4 4 4 4 4 4 > ",
"` Y Y Y Y Y Y Y Y Y Y Y Y e.H.H.H.H.H.H.H.H.H.H.H.H.H.H.H.H.H.H.H.H.H.H.H.H.H.H.H.H.H.H.H.H.H.H.H.H.H.e.N s w 6 2 2 5 2 2 2 : - ",
"* * * * * * * * * * * * * * 3.H.H.H.H.H.H.H.H.H.H.H.H.H.H.H.H.H.H.H.H.H.H.H.H.H.H.H.H.H.H.H.H.H.H.H.d.) ` U J G M b b j j v f d ",
"* * * * * * * * * * * * * * . K.H.H.H.H.H.H.H.H.H.H.H.H.H.H.H.H.H.H.H.H.H.H.H.H.H.H.H.H.H.H.H.H.H.Y.F ) [ ` ' [ ( / / U E ~ E ) ",
"J ^ ! ] [ ) [ [ _ [ [ _ [ [ _ F G.H.H.H.H.H.H.H.H.H.H.H.H.H.H.H.H.H.H.H.H.H.H.H.H.H.H.H.H.H.H.H.G.F [ _ [ [ ' ] ` [ ( ) W ] / ] ",
"i M E / ` ) ` [ ) [ [ _ [ 2X=XP.H.H.H.H.H.H.H.H.H.H.H.H.H.H.H.H.H.H.H.H.H.H.H.H.H.H.H.H.H.H.H.H.H.U.-X1X[ [ _ [ [ ' [ ( ] ` ] [ ",
"4 e a G U ) ) ` ) [ F XXa.H.H.H.H.H.H.H.H.H.H.H.H.H.H.H.H.H.H.H.H.H.H.H.H.H.H.H.H.H.H.H.H.H.H.H.H.H.H.H.a.XXD [ [ ) [ [ ' [ ) ) ",
"4 4 4 t b b J I '.r.S.H.H.H.H.H.H.H.H.H.H.H.H.H.H.H.H.H.H.H.H.H.H.H.H.H.H.H.H.H.H.H.H.H.H.H.H.H.H.H.H.H.H.H.F.t.$X_ [ [ ' ] ( [ ",
"4 1 > 4 5 | +.N.H.H.H.H.H.H.H.H.H.H.H.H.H.H.H.H.H.H.H.H.H.H.H.H.H.H.H.H.H.H.H.H.H.H.H.H.H.H.H.H.H.H.H.H.H.H.H.H.H.A.x.4X_ [ ` ' ",
"1 4 4 4 1   @.B.H.H.H.H.H.H.H.H.H.H.H.H.H.H.H.H.H.H.H.H.H.H.H.H.H.H.H.H.H.H.H.H.H.H.H.H.H.H.H.H.H.H.H.H.H.H.H.H.H.Z.z.).' [ [ ) ",
"1 4 4 1 * * * 4 Q.q.D.H.H.H.H.H.H.H.H.H.H.H.H.H.H.H.H.H.H.H.H.H.H.H.H.H.H.H.H.H.H.H.H.H.H.H.H.H.H.H.H.H.H.H.G.y.%X[ [ ] ) [ ' ` ",
"4 4 1 1 * * * * * * O ..4.H.H.H.H.H.H.H.H.H.H.H.H.H.H.H.H.H.H.H.H.H.H.H.H.H.H.H.H.H.H.H.H.H.H.H.H.H.H.H.s.OXS [ [ [ [ [ [ [ ( [ ",
"4 4 1 4 4 1 * * * * * * * + o.K.H.H.H.H.H.H.H.H.H.H.H.H.H.H.H.H.H.H.H.H.H.H.H.H.H.H.H.H.H.H.H.H.H.Y.o.. / * * * * * * * * * * * ",
"4 4 4 4 4 4 4 4 4 * * * * * * . S.H.H.H.H.H.H.H.H.H.H.H.H.H.H.H.H.H.H.H.H.H.H.H.H.H.H.H.H.H.H.H.S.. * * * * * * * * * * * * * * ",
"4 4 4 4 4 4 4 4 4 4 4 4 1 4 X L.H.H.H.H.H.H.H.H.H.H.H.H.H.H.H.H.H.H.H.H.H.H.H.H.H.H.H.H.H.H.H.H.H.J.. * * * * * * * * * * * * * ",
"4 4 4 4 4 4 4 4 4 4 4 1 4 5 8.H.H.H.H.H.H.H.H.H.H.H.H.H.H.H.H.H.H.H.H.H.H.H.H.H.H.H.H.H.H.H.H.H.H.H.1.* * * * * * * * * ) [ [ ` ",
"> > 1 1 4 1 4 4 1 4 4 4 i w.H.H.H.H.H.H.H.H.H.H.H.H.H.H.H.H.H.H.H.H.H.H.H.H.H.H.H.H.H.H.H.H.H.H.H.H.H.9.* * * K W ] [ [ [ [ [ ` ",
"& > 1 > 1 1 > 4 1 > t g %.H.H.H.H.H.H.H.H.H.H.H.H.H.H.H.H.H.H.H.H.H.H.H.H.H.H.H.H.H.H.H.H.H.H.H.H.H.H.H.{.r h n E ` [ [ [ ` ] [ ",
"> & ; ; > > > 1 > 1 j |.H.H.H.H.H.H.H.H.H.H.H.H.H.H.H.H.H.H.H.H.H.H.H.H.H.H.H.H.H.H.H.H.H.H.H.H.H.H.H.H.H.}.B L ^ [ ' _ _ ' ` [ ",
"> ; ; > ; 1 1 ; > i ~.F.H.H.H.H.H.H.H.H.H.H.H.H.H.H.H.H.H.H.H.H.H.H.H.H.H.H.H.H.H.H.H.H.H.H.H.H.H.H.H.H.H.F.(./ ( [ [ [ [ [ [ [ ",
"1 1 4 4 4 1 1 4 2 $ F.H.H.H.H.H.m.d.<. X@.H.H.H.H.H.H.H.H.H.H.H.H.H.H.H.H.H.H.H.H.H.H.H.k..X:.p.m.H.H.H.H.H.F.<X` ] ` [ [ [ ` ] ",
"4 4 4 4 4 4 4 4 o u.b.h.;X].2X` * * * * =.H.H.H.H.H.H.H.H.H.H.H.H.H.H.H.H.H.H.H.H.H.H.H.>.` ] [ ` * + ].&Xj.n.p.S / [ ' _ _ ' ` ",
"4 4 4 4 4 4 1 ; : i H W ` * * * * * * * 6.H.H.H.H.H.H.H.H.H.H.H.H.H.H.H.H.H.H.H.H.H.H.H.m.[ [ ! * * * ) ] / ` [ [ ' [ [ [ [ [ ] ",
"4 1 4 4 1 1 > ; ; q B T * * * * * Y Y Y V.H.H.H.H.H.H.H.H.H.H.H.H.H.H.H.H.H.H.H.H.H.H.H.V.[ ' ! * * / ] ) ] [ ` [ [ ] ` [ [ [ ` ",
"4 1 > < % = > > & 1 * * * * ) Y Y Y Y C H.H.H.H.H.H.H.Y.m.H.H.H.H.H.H.H.m.Y.H.H.H.H.H.H.H.) [ * * * ] ' ' ' ` ` [ [ ` ' _ ) ' [ ",
"1 1 ; > 3 > ; & 1 * * * * ^ ` Y Y Y Y ].H.H.H.H.H.H.l.[ @XH.H.H.H.H.H.H.@X[ j.H.H.H.H.H.H.`.` * * ] ( [ ' [ [ ' [ [ [ [ [ [ [ [ ",
"0 u q 3 3 1 ; ; > * * * g M I Y Y Y Y *.H.H.H.H.G.%X[ ` [ G.H.H.H.H.H.G.` ' ` #XG.H.H.H.H.@X* * * _ [ [ ' ` [ [ [ ] ` [ [ [ Y Y ",
"m u 4 4 1 4 > 1 1 4 * * * * * * * Y Y g.H.H.H.I.^.Y Y Y Y g.H.H.H.H.H.g.Y Y Y Y ^.I.H.H.H.@.* * Y Y Y Y Y Y Y Y Y Y Y Y Y Y Y Y ",
"z 4 4 1 1 4 1 4 4 1 * * * * * * * * * 6.H.H.0.. * * * * * :XH.H.H.H.H.:XY Y Y Y Y C e.H.H.6.* Y Y Y Y Y Y Y Y Y Y Y Y Y Y Y Y Y ",
"7 1 4 1 4 4 4 1 1 4 4 1 4 4 ; > * * * S.H. .* * * * * * * * 6.H.H.H.6.* * * * * * * *  .H.S.* Y Y Y Y Y Y Y Y Y Y Y Y ` / J b j ",
"1 4 4 4 4 4 4 > 1 4 1 > 1 > ; 1 > > O B.{ 1 5 2 5 2 5 a * *  .H.H.H.W.* * * * * * * * *   B.. * * * * * * * * * * * * * * * * * ",
"7 4 4 4 4 4 1 1 4 4 > 1 1 1 1 4 4 1 @ O 4 4 1 1 4 e a H E Y Y Z.H.Z.Y Y Y Y Y Y Y Y Y * * . + * * * * * * * * * * * * * * * * * ",
"3 4 4 4 4 4 > 1 1 > 4 1 1 1 1 4 4 4 4 1 Y Y Y Y Y Y Y Y Y Y Y ;.H.;.Y Y Y Y ) [ [ ` * * * [ ' ` [ [ [ [ ] ( Y Y Y Y Y ; ; 4 4 1 ",
"< 4 4 1 4 1 > ; > 1 1 1 4 4 Y Y Y Y Y Y Y Y Y Y Y Y Y Y Y Y [ 2XH.2X` ` [ [ ` [ ' [ * * [ [ ) ] [ [ [ ` / Y Y Y Y Y Y 4 1 4 4 4 ",
"> 1 4 1 > 1 1 1 > 4 4 1 Y Y Y Y Y Y Y Y Y P E ^ ` ] ( ` [ [ [ ( .X' ) ` [ ' [ [ _ * * * ` [ [ [ [ ' ] Y Y Y Y Y 4 ; 4 4 4 4 4 4 ",
"1 > 1 > 1 1 1 1 1 4 Y Y Y Y Y 4 9 a H E W ` ` ` ` [ [ [ ( ` ' W ) [ [ ` ] ' [ [ * * * ) ] [ Y Y Y Y Y Y Y Y i 8 1 1 4 4 4 4 4 1 ",
"> > > > > > 1 4 1 Y Y Y Y 1 4 g M P / ( ) ` [ [ [ ] ` [ ` ` [ [ ( [ ' [ [ _ [ * * * Y Y Y Y Y Y Y Y Y Y h 9 ; > 4 4 4 4 * * * * ",
"> 1 > 1 4 1 1 4 4 Y Y Y 4 e a H / / ` ] ` [ [ [ [ / ' ' ) ` [ Y Y Y Y Y Y Y * * * Y Y Y Y Y Y ( / P M i 8 * * * * * * * * * * * ",
"1 4 4 4 4 4 4 1 4 Y Y Y Y Y Y Y Y Y Y Y Y Y Y Y Y Y Y Y Y Y Y Y Y Y Y Y Y Y * * Y [ ` ( ] ` * * * * * * * * * * * * * * * ; ; 1 ",
"4 1 1 4 1 1 1 ; ; 1 9 Y Y Y Y Y Y Y Y Y Y Y Y Y Y Y Y Y Y Y Y Y [ [ ' ` [ * * * * * * * * * * * * * * * * * 4 4 1 > 1 > 1 1 1 4 ",
"1 1 4 1 1 4 1 > 1 i b T ( / ` ` ` [ ' ` W [ / ] [ ' [ [ ) [ [ ' ` [ ` ] * * * * * * * * * * * 5 1 1 1 4 4 1 > 1 > ; ; > 1 4 4 1 ",
"4 4 1 4 4 1 4 t g J E ` ) / ) ' ) ` [ ^ ] [ [ ` ] ' [ [ ) [ [ * * * * * * * * * * I V h e 4 1 1 > 1 4 4 1 > > > ; > 4 1 4 4 4 4 "
};
