/* XPM */
static char * test_xpm[] = {
"64 64 568 2",
"  	c #808080",
". 	c #7C7D82",
"+ 	c #777A84",
"@ 	c #385799",
"# 	c #2C56A4",
"$ 	c #2D57A7",
"% 	c #2D58A7",
"& 	c #2D59A7",
"* 	c #375699",
"= 	c #747782",
"- 	c #7B7D81",
"; 	c #435C97",
"> 	c #395DA3",
", 	c #2E5BAD",
"' 	c #3071EB",
") 	c #3177F8",
"! 	c #3278F9",
"~ 	c #337FF9",
"{ 	c #3380F8",
"] 	c #3584F8",
"^ 	c #337FF8",
"/ 	c #385CA3",
"( 	c #787A84",
"_ 	c #3689F2",
": 	c #3380F9",
"< 	c #327AFE",
"[ 	c #327AFF",
"} 	c #3178FC",
"| 	c #3177FC",
"1 	c #3178FD",
"2 	c #3279FF",
"3 	c #327AFD",
"4 	c #3584F9",
"5 	c #3687F2",
"6 	c #3A5DA3",
"7 	c #425B97",
"8 	c #2E5BAC",
"9 	c #3279FD",
"0 	c #3279FE",
"a 	c #3176FC",
"b 	c #3279FC",
"c 	c #395DA4",
"d 	c #395AA1",
"e 	c #3171E5",
"f 	c #337FF7",
"g 	c #3483F7",
"h 	c #3177F7",
"i 	c #3176F7",
"j 	c #3174F5",
"k 	c #337EF7",
"l 	c #2E5AAE",
"m 	c #3A5CA4",
"n 	c #327BF1",
"o 	c #2A529C",
"p 	c #294C8D",
"q 	c #294C8C",
"r 	c #274785",
"s 	c #284A8C",
"t 	c #294A8C",
"u 	c #294B8C",
"v 	c #2A5099",
"w 	c #3072EF",
"x 	c #337EF8",
"y 	c #327BFE",
"z 	c #3176F3",
"A 	c #3A5BA3",
"B 	c #80807F",
"C 	c #3A5DA4",
"D 	c #3174F2",
"E 	c #2A519B",
"F 	c #284379",
"G 	c #25293A",
"H 	c #24262F",
"I 	c #24252C",
"J 	c #252A3E",
"K 	c #284888",
"L 	c #2A539C",
"M 	c #327CF1",
"N 	c #395CA4",
"O 	c #28437A",
"P 	c #252939",
"Q 	c #24211E",
"R 	c #24211C",
"S 	c #242221",
"T 	c #253049",
"U 	c #295094",
"V 	c #2E5BAE",
"W 	c #262E43",
"X 	c #242220",
"Y 	c #242323",
"Z 	c #262D40",
"` 	c #284378",
" .	c #395AA3",
"..	c #3072F1",
"+.	c #327BF0",
"@.	c #294B8B",
"#.	c #24221F",
"$.	c #3070E5",
"%.	c #3A5BA4",
"&.	c #3277F8",
"*.	c #3177FD",
"=.	c #294F96",
"-.	c #274278",
";.	c #24252E",
">.	c #3380F7",
",.	c #3278F7",
"'.	c #3174F1",
").	c #28498B",
"!.	c #294C8B",
"~.	c #3480F0",
"{.	c #3175F6",
"].	c #3176FB",
"^.	c #327BFF",
"/.	c #2A509C",
"(.	c #284279",
"_.	c #294D8D",
":.	c #2A509D",
"<.	c #3073F6",
"[.	c #787A7F",
"}.	c #252C44",
"|.	c #242A3B",
"1.	c #243C68",
"2.	c #294B8F",
"3.	c #3073F5",
"4.	c #3481F9",
"5.	c #284F96",
"6.	c #284B89",
"7.	c #252B3F",
"8.	c #242733",
"9.	c #243A64",
"0.	c #2A529D",
"a.	c #3074F6",
"b.	c #337EF6",
"c.	c #3380EF",
"d.	c #2A5199",
"e.	c #284985",
"f.	c #29539C",
"g.	c #337EF9",
"h.	c #2F6EE6",
"i.	c #3071EA",
"j.	c #3278F6",
"k.	c #3178F7",
"l.	c #3482F7",
"m.	c #306FE6",
"n.	c #306DE2",
"o.	c #3277FA",
"p.	c #3278FC",
"q.	c #3381F9",
"r.	c #3380FB",
"s.	c #2D63C8",
"t.	c #263A70",
"u.	c #2D65CD",
"v.	c #337FFB",
"w.	c #3380FA",
"x.	c #2C5FBF",
"y.	c #273B71",
"z.	c #2F6AD5",
"A.	c #3381FC",
"B.	c #7B7D82",
"C.	c #385BA4",
"D.	c #3585F8",
"E.	c #3177F3",
"F.	c #253565",
"G.	c #252C47",
"H.	c #2D62C8",
"I.	c #327AFB",
"J.	c #3484FA",
"K.	c #2B5DBA",
"L.	c #242A45",
"M.	c #27447D",
"N.	c #3177F5",
"O.	c #3688F5",
"P.	c #2E67D1",
"Q.	c #252C48",
"R.	c #252A41",
"S.	c #2B5EBC",
"T.	c #3075F7",
"U.	c #2A58AE",
"V.	c #242A3E",
"W.	c #253052",
"X.	c #2F6BDD",
"Y.	c #3584F6",
"Z.	c #3A5EA4",
"`.	c #3687F3",
" +	c #285AB2",
".+	c #24293D",
"++	c #24283C",
"@+	c #2858B0",
"#+	c #2C55A1",
"$+	c #242942",
"%+	c #2C60C3",
"&+	c #3483F4",
"*+	c #3483F2",
"=+	c #2855A5",
"-+	c #242738",
";+	c #24283A",
">+	c #2956A9",
",+	c #29519C",
"'+	c #242533",
")+	c #242A40",
"!+	c #2B5CB6",
"~+	c #3482F3",
"{+	c #3482F2",
"]+	c #2854A5",
"^+	c #2954A4",
"/+	c #29519B",
"(+	c #242734",
"_+	c #25293E",
":+	c #2A5AB5",
"<+	c #385AA4",
"[+	c #327DF2",
"}+	c #2A56A9",
"|+	c #252837",
"1+	c #2C55A2",
"2+	c #295097",
"3+	c #3175F3",
"4+	c #395BA4",
"5+	c #2A55AA",
"6+	c #242735",
"7+	c #2B5CBC",
"8+	c #2A59B5",
"9+	c #3075F6",
"0+	c #2953A1",
"a+	c #242737",
"b+	c #252B45",
"c+	c #3072F2",
"d+	c #797A80",
"e+	c #3175F4",
"f+	c #2B5DC0",
"g+	c #252A42",
"h+	c #2A5BB5",
"i+	c #242A46",
"j+	c #2D63CE",
"k+	c #2F6FEB",
"l+	c #395AA2",
"m+	c #395BA3",
"n+	c #2B5EC1",
"o+	c #252A43",
"p+	c #2B5FC1",
"q+	c #2B5AB1",
"r+	c #25293D",
"s+	c #252D4C",
"t+	c #2D65D4",
"u+	c #2F6FEA",
"v+	c #252B46",
"w+	c #2D64CB",
"x+	c #2B5FC2",
"y+	c #242B4B",
"z+	c #2E68DA",
"A+	c #2F6DE4",
"B+	c #2D62C9",
"C+	c #252D4E",
"D+	c #2F6ADE",
"E+	c #2D66D4",
"F+	c #252C4A",
"G+	c #252D4D",
"H+	c #2E68DB",
"I+	c #2F6DE6",
"J+	c #252F53",
"K+	c #2F70EB",
"L+	c #337BF6",
"M+	c #2F6ADD",
"N+	c #242A44",
"O+	c #25335B",
"P+	c #3073F3",
"Q+	c #253158",
"R+	c #2D67D6",
"S+	c #2C5FC4",
"T+	c #252D4A",
"U+	c #274680",
"V+	c #3177F6",
"W+	c #254178",
"X+	c #252F50",
"Y+	c #2D67D5",
"Z+	c #2C5FC3",
"`+	c #27529D",
" @	c #3484F8",
".@	c #284E91",
"+@	c #253054",
"@@	c #2D64D3",
"#@	c #2B5BBB",
"$@	c #253256",
"%@	c #2C62BE",
"&@	c #3586FA",
"*@	c #3585F9",
"=@	c #2B5CB7",
"-@	c #25325A",
";@	c #2F6EE9",
">@	c #777A85",
",@	c #3071F0",
"'@	c #2B58B0",
")@	c #263664",
"!@	c #3072EE",
"~@	c #3175F1",
"{@	c #2A56A6",
"]@	c #274F98",
"^@	c #26509B",
"/@	c #26509C",
"(@	c #27509C",
"_@	c #29529C",
":@	c #2958AC",
"<@	c #2F6EE3",
"[@	c #2C5EC1",
"}@	c #2F6DE5",
"|@	c #3859A1",
"1@	c #7C7D81",
"2@	c #395EA3",
"3@	c #2E5BAF",
"4@	c #3072F0",
"5@	c #264F9C",
"6@	c #244175",
"7@	c #327DEB",
"8@	c #264887",
"9@	c #242633",
"0@	c #252B42",
"a@	c #284D8F",
"b@	c #3179EC",
"c@	c #263F71",
"d@	c #2954A7",
"e@	c #2F6EE4",
"f@	c #4361A0",
"g@	c #388BEC",
"h@	c #3380F3",
"i@	c #264A8B",
"j@	c #2955AA",
"k@	c #2C62CA",
"l@	c #242C4B",
"m@	c #24211D",
"n@	c #253055",
"o@	c #2E69DC",
"p@	c #2952A2",
"q@	c #284E92",
"r@	c #337EF5",
"s@	c #337FF3",
"t@	c #3686EC",
"u@	c #3A5DA2",
"v@	c #787B85",
"w@	c #4362A1",
"x@	c #3960AD",
"y@	c #337CEF",
"z@	c #2D64C8",
"A@	c #263667",
"B@	c #231F1D",
"C@	c #24211B",
"D@	c #2954A9",
"E@	c #3071EC",
"F@	c #2D67C8",
"G@	c #3A5EA3",
"H@	c #777A86",
"I@	c #375FAC",
"J@	c #327AED",
"K@	c #253253",
"L@	c #263661",
"M@	c #3484F5",
"N@	c #3960AC",
"O@	c #3482F0",
"P@	c #273F70",
"Q@	c #242325",
"R@	c #3074F1",
"S@	c #3481EF",
"T@	c #263556",
"U@	c #252C4B",
"V@	c #2D68D7",
"W@	c #2D63C7",
"X@	c #3687F4",
"Y@	c #3481F0",
"Z@	c #273D70",
"`@	c #242225",
" #	c #252E4F",
".#	c #2F6FE9",
"+#	c #263565",
"@#	c #231F1E",
"##	c #242630",
"$#	c #264481",
"%#	c #337FF6",
"&#	c #2F6EE5",
"*#	c #2C63CF",
"=#	c #263566",
"-#	c #242836",
";#	c #263F77",
">#	c #2F68D3",
",#	c #3174E8",
"'#	c #3584F7",
")#	c #787B86",
"!#	c #2F6DDD",
"~#	c #3278F0",
"{#	c #3070EB",
"]#	c #263B6D",
"^#	c #231E16",
"/#	c #242224",
"(#	c #3073F0",
"_#	c #2E6BE1",
":#	c #3277F6",
"<#	c #4260A1",
"[#	c #3582F3",
"}#	c #2E6ADF",
"|#	c #3380FC",
"1#	c #3279EC",
"2#	c #273B6F",
"3#	c #252F55",
"4#	c #253056",
"5#	c #26386B",
"6#	c #2E69D8",
"7#	c #3481F4",
"8#	c #327AFC",
"9#	c #2E6ADE",
"0#	c #3177FA",
"a#	c #306DE0",
"b#	c #306FE9",
"c#	c #3176F9",
"d#	c #3071F1",
"e#	c #3072F3",
"f#	c #3175F5",
"g#	c #3177F9",
"h#	c #3070E7",
"i#	c #3175F9",
"j#	c #306EE6",
"k#	c #306EE0",
"l#	c #3175F7",
"m#	c #2E68D6",
"n#	c #2F71F0",
"o#	c #3173EE",
"p#	c #2E68D7",
"q#	c #3178F9",
"r#	c #2F6CE0",
"s#	c #375BA4",
"t#	c #306EDE",
"u#	c #2E6BDE",
"v#	c #2E6CE0",
"w#	c #2E6CE1",
"x#	c #2F6BD9",
"y#	c #306DE6",
"z#	c #3177FB",
"A#	c #375AA4",
"B#	c #78797F",
"C#	c #306FE8",
"D#	c #2C61C7",
"E#	c #3074F2",
"F#	c #3176E8",
"G#	c #2F69D9",
"H#	c #3278FB",
"I#	c #3178FB",
"J#	c #2F6ADC",
"K#	c #3071E8",
"L#	c #2F71EB",
"M#	c #2C61C6",
"N#	c #2F70EC",
"O#	c #3174F6",
"P#	c #2C5CBA",
"Q#	c #2B5BB8",
"R#	c #2D66D5",
"S#	c #2D66D1",
"T#	c #3175F8",
"U#	c #3073F2",
"V#	c #2D65D0",
"W#	c #2A58B2",
"X#	c #2B5DBD",
"Y#	c #2D65CE",
"Z#	c #2756B0",
"`#	c #2F71EE",
" $	c #3072EA",
".$	c #2853A6",
"+$	c #2E69D5",
"@$	c #2952A0",
"#$	c #264F9F",
"$$	c #306DDD",
"%$	c #274F9F",
"&$	c #2F71ED",
"*$	c #337DF3",
"=$	c #3A5CA3",
"-$	c #3072EC",
";$	c #2B5AB4",
">$	c #254789",
",$	c #2857B0",
"'$	c #2E66D4",
")$	c #3278FA",
"!$	c #2755AD",
"~$	c #274989",
"{$	c #3073F1",
"]$	c #39589B",
"^$	c #2C63C2",
"/$	c #2F6BD8",
"($	c #2B5DBC",
"_$	c #2754A7",
":$	c #2C5FC2",
"<$	c #3071E9",
"[$	c #2955A7",
"}$	c #2B60BB",
"|$	c #3174F7",
"1$	c #2D59AE",
"2$	c #2E59A7",
"3$	c #337CFE",
"4$	c #2F6BDB",
"5$	c #3070E6",
"6$	c #2E6AD9",
"7$	c #2E69D9",
"8$	c #3178FA",
"9$	c #2E68D4",
"0$	c #3176F4",
"a$	c #3070E2",
"b$	c #3279FB",
"c$	c #2E56A5",
"d$	c #425B96",
"e$	c #787B84",
"f$	c #415B98",
"g$	c #2F5EAE",
"h$	c #3686F3",
"i$	c #3277E8",
"j$	c #2E6AD8",
"k$	c #2E67D5",
"l$	c #2F71EF",
"m$	c #3172EB",
"n$	c #2E6AD7",
"o$	c #3481F2",
"p$	c #2E5BAB",
"q$	c #306BDD",
"r$	c #3174EA",
"s$	c #2F6AD9",
"t$	c #2E6BDB",
"u$	c #2E68D5",
"v$	c #306EDF",
"w$	c #306FE5",
"x$	c #2E5AAB",
"y$	c #415B97",
"z$	c #2D55A3",
"A$	c #2B59B4",
"B$	c #2F6BDE",
"C$	c #3074F3",
"D$	c #2E69DD",
"E$	c #2E6ADA",
"F$	c #3173F4",
"G$	c #3071ED",
"H$	c #2D55A2",
"I$	c #405A96",
"J$	c #38579A",
"K$	c #2E58AA",
"L$	c #3070E9",
"M$	c #3072E6",
"N$	c #2C64CE",
"O$	c #306FE2",
"P$	c #2D65CF",
"Q$	c #306EE8",
"R$	c #3173F0",
"S$	c #2D58AB",
"T$	c #2D539B",
"U$	c #7F7F7F",
"V$	c #73757A",
"W$	c #777984",
"X$	c #405A97",
"Y$	c #2E58AB",
"Z$	c #2F6FE8",
"`$	c #3279EE",
" %	c #3278ED",
".%	c #3070ED",
"+%	c #2E59AD",
"@%	c #415A96",
"#%	c #72747E",
"$%	c #7F7F80",
"%%	c #7F7F7E",
"&%	c #71737D",
"*%	c #365699",
"=%	c #2C55A4",
"-%	c #2C56A5",
";%	c #2D57A5",
">%	c #2A57A7",
",%	c #2D56A4",
"'%	c #70737E",
")%	c #7B7C81",
"                                        . + @ # $ $ % % % % % & % & % % % % $ $ # * = -                                         ",
"                                      . ; > , ' ) ! ~ { { { { ] { ] { { { ^ ! ) ' , / ; .                                       ",
"                                      ( > _ : < [ [ [ } | | | } 1 } | | | | 2 [ 3 4 5 6 .                                       ",
"                                    . 7 8 : 9 0 | a a a | } | 2 2 2 | | a a a a a b ] c (                                       ",
"                                    . d e 3 a a a a | ) f g h i j h k ^ < | a a a a ! l 7 .                                     ",
"                                    . m f | a a | < n o p q r s t t u v w x y | a a 0 z A .                                     ",
"                                  B . C ] } a a < D E F G H I H H H H J K L M y a a } ] C .                                     ",
"                                B B ( N { | a | n E O P Q R R R R R R S T F U n | a } ] c (                                     ",
"                                  . 7 V ~ | a ) o O W X R R R R R R R R Y Z ` o ) 0 } : 8 7 .                                   ",
"                                  .  ...< a | +.@.G X R R R R R R R R R R #.G p k 1 a 3 $.d .                                   ",
"                                  . %.&.*.a i =.-.;.R R R R R R R R R R R R H q >.< | 0 ,.%..                                   ",
"                                  . m ~ [ | '.).G Q R R R R R R R R R R R R H !.~.{.].1 ^ m .                                   ",
"                                  - m : ^.i /.(.;.R R R R R R R R R R R R R ;.` _.:.<.[ : m .                                   ",
"                                  [.N 4 y w ).}.X R R R R R R R R R R R R R #.|.1.2.3.^.4 C .                                   ",
"                                  [.N 4.< 3.5.6.7.H H H H H H H H H H H H H 8.9.q 0.a.[ : m .                                   ",
"                                  - C ] } } b.c.d.q q t u u t u u t u t u t e.f.c.b.| } { m .                                   ",
"                                  . m { b g.h.i.j.g f k.k k k.k k k.k ,.k ,.l.j.m.n.o.p.{ m .                                   ",
"                                  . N q.r.s.t.u.v.b | a | | a | | a | 0 | | b w.x.y.z.A.q.m .                                   ",
"                                  B.C.D.E.F.G.H.I.| a a a ].a a a a a a a a } J.K.L.M.N.{ m .                                   ",
"                                  . C O.P.Q.R.S.J.} a a ].T.0 a a a a a a a | : U.V.W.X.Y.C .                                   ",
"                                  . Z.`. +.+++@+: | a a a ].a a a a a a a a | { #+P $+%+&+C .                                   ",
"                                  . C *+=+-+;+>+: | a a a a a a a a a a a a | ^ ,+'+)+!+~+C .                                   ",
"                                  . C {+]+-+-+^+: | a a a a a a a a a a a a | ^ /+(+_+:+z %..                                   ",
"                                  B.<+[+}+;+|+1+{ | a a a a a a a a a a a a | ^ 2+8._+:+3+%..                                   ",
"                                  . 4+3+5+;+;+}+: | a ].a a a a a a a a a a | ^ ,+6+R.7+3+4+B.                                  ",
"                                  . %.3+8+_+++@+: | ].9+].a a a a a a a a a | ^ 0+a+b+H.c+ .d+                                  ",
"                                  . %.e+f+g+_+h+w.| a ].a a a a a a a a a a | : }+;+i+j+k+l+B.                                  ",
"                                  . m+c+n+o+o+p+w.| a a a a a a a a a a a a | : q+r+s+t+u+l+.                                   ",
"                                  .  .c+H.v+v+w+r.| a a a a a a a a a a a a | w.x+o+y+z+A+d .                                   ",
"                                  .  .c+B+v+C+D+9 a a a a a a a a a a a a a | r.E+F+G+H+I+d .                                   ",
"                                  .  .c+B+v+J+K+0 a a a a a a a a a a a a a | L+M+G+G+z+A+d .                                   ",
"                                  . m+c+B+N+O+P+0 a a a a a a a a a a a a a a 0 ..Q+s+R+u+l+.                                   ",
"                                  . %.e+S+T+U+k | a a a a a a a a a a a a a a 2 V+W+X+Y+h.d .                                   ",
"                                  . m+c+Z+X+`+ @b | | | | | | | | | | } | | | 9 ^ .@+@@@I+d .                                   ",
"                                  .  ...#@$@%@&@*@{ ^ ^ ^ ^ ^ ^ ^ ^ {  @{ ^ ^ : *@=@-@j+;@l+.                                   ",
"                                . >@<+,@'@)@!@~@{@]@^@/@/@(@,+,+/+]@/+_@,+/+2+:@M <@)@[@}@|@+ 1@                                ",
"                              . ; 2@3@4@5@6@7@8@V.9@6+6+6+6+6+6+6+9@6+6+6+6+8.0@a@b@c@d@e@, > ; .                               ",
"                              . f@g@h@b.i@j@k@l@m@R R R R R R R R R R R R R R Q n@o@p@q@r@s@t@u@.                               ",
"                                v@w@x@y@z@u+A@B@C@R R R R R R R R R R R R R R R ;+D@E@F@y@x@G@; .                               ",
"                                  . H@I@&+J@K@C@R R R R R R R R R R R R R R R R X L@r@M@N@>@. .                                 ",
"                                    . C O@P@Q@R R R R R R R R R R R R R R R R R R n@R@D.C .                                     ",
"                                    . C S@T@R R R R R R R R R R R R R R R R R R R U@V@Y.C .                                     ",
"                                    . C S@T@R R R R R R R R R R R R R R R R R R R b+W@X@Z..                                     ",
"                                    . C Y@Z@`@C@R R R R R R R R R R R R R R R R m@ #V@Y.C .                                     ",
"                                    . m >..#+#@#C@R R R R R R R R R R R R R R m@##$#z D.C .                                     ",
"                                    . m %#&#*#=#`@R C@R R R R R R R R R R R #.-#;#>#,#'#C .                                     ",
"                                    )#x@b.!#~#{#]#Q@^#C@R R R R R R R R R /#$@=.(#j _#:#x@)#                                    ",
"                                  . <#[#I.}#{#|#1#2#3#n@n@n@4#4#4#n@n@n@4#5#6#7#8#h.9#8#[#<#.                                   ",
"                                  . C ] 0#a#b#c#m.d#e#e#e#e#e#f#e#e#e#e#e#{.g#h#i#j#k#8#*@C B.                                  ",
"                                  . m { 0#A+j#l#m#n#].a a a a a a a a a a ].o#p#q#A+r#8#*@s#[.                                  ",
"                                  . m : 8#k#t#g.u#v#p.a a a a a a a a a a a ) w#x x#y#z#{ A#B#                                  ",
"                                  . m : 3 C#D#E#F#G#H#a a a a a a a a a a I#J#K#L#M#N#z#] N [.                                  ",
"                                  . C ] } O#P#Q#R#S#T#a a a a a a a a a a U#V#t+W#X#g#} ] C - B                                 ",
"                                  . m { 1 I#Y#p@Z#n+`#].a a a a a a a a 9  $n+Z#.$+$p.1 { m .                                   ",
"                                  . m ^ [ 9 h#@$#$f+u#p.a a a a a a a a p.$$f+%$p@&$0 } *$=$.                                   ",
"                                  . l+-$< 0 w ;$>$,$'$)$a a a a a a a a T#Y#!$~$Q#{$9 3+V 7 .                                   ",
"                                  . ]$^$w.} o#/$($_$:$i.].a a a a a a 9 <$($[$}$x#i#|$1$@ (                                     ",
"                                  . 7 2$~+3$I.4$5$c+6$7$0#a a a a a | 8$9$$$0$a$4$b$3+c$d$.                                     ",
"                                    e$f$g$h$'#i$j$g#{.k$l$].a a a a 9 m$9$l#g#n$i$o$V f$e$                                      ",
"                                      e$7 > p$q$$.r$~ s$t$p.0 a a a I#u$v$g#b#w$q$x$f$e$                                        ",
"                                        . ( y$z$A$B$C$w D$l#| a a a l#E$F$G$M+'@H$y$e$                                          ",
"                                            e$I$J$K$L$M$N$O$8#p.} 0#O$P$Q$R$S$T$I$e$                                            ",
"                                            U$V$W$X$Y$Z$' `$] D.D.'# %5$.%+%* @%#%$%                                            ",
"                                              %%U$&%*%=%-%;%& >%& & ;%,%-%* '%)%U$                                              "};
