/* XPM */
static char *result[] = {
/* columns rows colors chars-per-pixel */
"64 64 14 1 ",
"  c black",
". c #5C5339",
"X c #FF7E7E",
"o c #DEBC5D",
"O c #E2CA87",
"+ c #E3CB87",
"@ c #E2CA88",
"# c #E3CA88",
"$ c #E2CB88",
"% c #E3CB88",
"& c #E2CC88",
"* c #E3CC88",
"= c white",
"- c None",
/* pixels */
"----------------------------------------------------------------",
"----------------------------------------------------------------",
"----------------------------------------------------------------",
"--------------------------------..--%@#-------------------------",
"--------------------------------....%#--------------------------",
"--------------------------------....+---------------------------",
"------------------------------%....%..--------------------------",
"----------------------------..%...%...--------------------------",
"----------------------..---...........--------------------------",
"----------------------..---...........--------------------------",
"---------------------...--............--------------------------",
"---------------------..O-............-...---..------------------",
"--------------------....-................-....------------------",
"-------------------............%%......--....-------------------",
"------------------.....%....%..%%.....%%...%--------------------",
"-----------------%....%.....%..%.....%%%..%%%-------------------",
"-----------------....%%....%%%%%....%%%...%%%%------------------",
"----------------.....%...%%%%%%%%...%%...%%%...-----------------",
"----------------.....%..%%%%%%%%%..%%...%%%......%--------------",
"----------------%%%%%%%%%%%%%%%%%%%%%..%%%...%...%%-------------",
"-------------%$%%%%%%%%%%%%%%%%%%%%%%..%%.......%%%*------------",
"------------%%%%%%%%%%%%%%%%%%%%%%%%%%%%...%...%%%%@------------",
"------------%%%%%%%%%%%%%%%%%%%%%%%%%%%...%%%%%%%%%%------------",
"------------%%%%%%%%=====%%%%%%%%%%%%%%..%%%%%%%%%%%------------",
"------------%%%%%%========%%%%%%%%%=====%%%%%%%%%%%%------------",
"------------%%%%%%========%%%%%%%========%%%%%%%%%%%------------",
"------------%%%%%%========%%%%%%=========%%%%%%%%%%%------------",
"------------%%%%%%=========%%%%%=========%%%%%%%%%%%------------",
"------------%%%%%%==  =====%%%%%===========%%%%%%%%%------------",
"------------%%%%%%==  =====%%%%%===========%%%%%%%%%------------",
"------------%%%%%%%========%%%%%==  =======%%%%%%%%%------------",
"-----%------%%%%%%%%%===%oooo%%%==  =======%%%%%%%%%------%-----",
"-----+%%@%--%%%%%%%%%%%%%oooo%%%%========%%%%%%%%%%%--&@%%+-----",
"------%%%%%%%%%%%%%%%%%%ooo%%%%%%%=======%%%%%%%%%%%%%%%%%+-----",
"------%%%%%%%%%%%%%%%%%%ooo%%%%%%%%%%%%%%%%%%%%%%%%%%%%%%%------",
"------#%%%%%%%%%%%%%%%%ooo%%%%%%%%%%%%%%%%%%%%%%%%%%%%%%%#------",
"------%%%%%%%%%%%%%%%%%ooooo%%%%%%%%%%%%%%%%%%%%%%%%%%%%%%------",
"-----%%%%%%%%%%%%%%%%%%%ooooooo%%%%%%%%%%%%%%%%%%%%%%%%%%%%-----",
"----+%%%%%%%%%%%%%%%%%%%%%ooooo%%%%%%%%%%%%%%%%%%%%%%%%%%%%+----",
"------%%%%%%%%%%%%%%%%%%%%%%%%%%%%%%%%%%%%%%%%%%%%%%%%%%%+------",
"-------O%%%%%%%%%%%%%%%%%%%%%%%%%%%%%%%%%%%%%%%%%%%%%%%%O-------",
"--------%%%%%%%%%%%%%=======%%%%%%%%%%%%%%%%%%%%%%%%%%%%--------",
"--------+%%%%%%%%%%==================%%%%%%%%%%%%%%%%%%+--------",
"--------*%%%%%%%%%%=======================%%%%%%%%%%%%%*--------",
"---------%%%%%%%%%%=======================%%%%%%%%%%%%%---------",
"----------#%%%%%%%=======XXX================%%%%%%%%%#----------",
"------------%%%%%%=====XXXXXXXXXXX==========%%%%%%%%------------",
"------------%%%%%%=====XXXXXXXXXXX==========%%%%%%%%------------",
"------------%%%%%%%%====XXXXXXXXXX=========%%%%%%%%%------------",
"------------+%%%%%%%%%%%%%%=XXXXX==========%%%%%%%%+------------",
"-------------%%%%%%%%%%%%%%%%%%%%%%%%%%%%%%%%%%%%%%-------------",
"--------------%%%%%%%%%%%%%%%%%%%%%%%%%%%%%%%%%%%%--------------",
"---------------+%%%%%%%%%%%%%%%%%%%%%%%%%%%%%%%%+---------------",
"-----------------%%%%%%%%%%%%%%%%%%%%%%%%%%%%%%-----------------",
"------------------*%%%%%%%%%%%%%%%%%%%%%%%%%%*------------------",
"--------------------+%%%%%%%%%%%%%%%%%%%%%%+--------------------",
"-----------------------%%%%%%%%%%%%%%%%%%-----------------------",
"---------------------------*+#%%%%++*---------------------------",
"----------------------------------------------------------------",
"----------------------------------------------------------------",
"----------------------------------------------------------------",
"----------------------------------------------------------------",
"----------------------------------------------------------------",
"----------------------------------------------------------------"
};
