/* XPM */
static char * 11_xpm[] = {
"64 64 568 2",
"  	c #808080",
". 	c #7C7D82",
"+ 	c #787B85",
"@ 	c #4361A0",
"# 	c #435C97",
"$ 	c #80807F",
"% 	c #4362A1",
"& 	c #388BEC",
"* 	c #395EA3",
"= 	c #777A85",
"- 	c #7B7D82",
"; 	c #7B7D81",
"> 	c #787A7F",
", 	c #787B84",
"' 	c #425B97",
") 	c #39589B",
"! 	c #395AA2",
"~ 	c #3A5CA4",
"{ 	c #3A5DA4",
"] 	c #4260A1",
"^ 	c #787B86",
"/ 	c #777A86",
"( 	c #3960AD",
"_ 	c #3380F3",
": 	c #2E5BAF",
"< 	c #385AA4",
"[ 	c #395AA3",
"} 	c #395BA3",
"| 	c #3A5BA4",
"1 	c #395BA4",
"2 	c #3A5EA4",
"3 	c #385BA4",
"4 	c #395CA4",
"5 	c #787A84",
"6 	c #415B98",
"7 	c #2E59A7",
"8 	c #2C63C2",
"9 	c #3072EC",
"0 	c #337FF8",
"a 	c #3380F8",
"b 	c #3584F8",
"c 	c #3380F9",
"d 	c #3582F3",
"e 	c #375FAC",
"f 	c #337CEF",
"g 	c #337EF6",
"h 	c #3072F0",
"i 	c #3071F0",
"j 	c #3072F1",
"k 	c #3072F2",
"l 	c #3175F4",
"m 	c #3175F3",
"n 	c #327DF2",
"o 	c #3482F2",
"p 	c #3483F2",
"q 	c #3687F3",
"r 	c #3688F5",
"s 	c #3585F8",
"t 	c #3381F9",
"u 	c #3481F9",
"v 	c #3584F9",
"w 	c #337FF9",
"x 	c #3277F8",
"y 	c #2E5BAE",
"z 	c #395AA1",
"A 	c #2F5EAE",
"B 	c #3482F3",
"C 	c #3380FA",
"D 	c #327AFE",
"E 	c #327AFF",
"F 	c #3178FD",
"G 	c #3178FC",
"H 	c #327AFD",
"I 	c #327AFC",
"J 	c #3177FA",
"K 	c #327AFB",
"L 	c #337FF6",
"M 	c #3380F7",
"N 	c #3481F0",
"O 	c #3481EF",
"P 	c #3482F0",
"Q 	c #3483F4",
"R 	c #2D64C8",
"S 	c #264A8B",
"T 	c #264F9C",
"U 	c #2B58B0",
"V 	c #2B5BBB",
"W 	c #2C5FC3",
"X 	c #2C5FC4",
"Y 	c #2D62C9",
"Z 	c #2D62C8",
"` 	c #2B5EC1",
" .	c #2B5DC0",
"..	c #2A59B5",
"+.	c #2A55AA",
"@.	c #2A56A9",
"#.	c #2854A5",
"$.	c #2855A5",
"%.	c #285AB2",
"&.	c #2E67D1",
"*.	c #3177F3",
"=.	c #3380FB",
"-.	c #3279FC",
";.	c #327BFE",
">.	c #327BFF",
",.	c #3177FD",
"'.	c #337FF7",
").	c #3171E5",
"!.	c #2E5BAC",
"~.	c #395DA3",
"{.	c #3686F3",
"].	c #337CFE",
"^.	c #3279FE",
"/.	c #3279FD",
"(.	c #3178FB",
"_.	c #3174F6",
":.	c #306FE8",
"<.	c #306EE0",
"[.	c #2F6DE4",
"}.	c #306DE0",
"|.	c #2E6ADF",
"1.	c #2F6DDD",
"2.	c #2F6EE5",
"3.	c #2F6FE9",
"4.	c #273D70",
"5.	c #263556",
"6.	c #273F70",
"7.	c #327AED",
"8.	c #2F6FEA",
"9.	c #2955AA",
"0.	c #244175",
"a.	c #263664",
"b.	c #253256",
"c.	c #252F50",
"d.	c #252D4A",
"e.	c #242A44",
"f.	c #252B46",
"g.	c #252A43",
"h.	c #252A42",
"i.	c #25293E",
"j.	c #24283A",
"k.	c #242738",
"l.	c #24293D",
"m.	c #252C48",
"n.	c #253565",
"o.	c #2D63C8",
"p.	c #337EF9",
"q.	c #3073F5",
"r.	c #3072EF",
"s.	c #3176F7",
"t.	c #3177FC",
"u.	c #3176FC",
"v.	c #3689F2",
"w.	c #777A84",
"x.	c #7F7F7F",
"y.	c #415B97",
"z.	c #2E5BAB",
"A.	c #3584F7",
"B.	c #3173EE",
"C.	c #3070E7",
"D.	c #2D65CE",
"E.	c #2C5CBA",
"F.	c #2C61C7",
"G.	c #306EDE",
"H.	c #306EE6",
"I.	c #306FE9",
"J.	c #3070EB",
"K.	c #3278F0",
"L.	c #2C63CF",
"M.	c #263565",
"N.	c #242225",
"O.	c #24211C",
"P.	c #242325",
"Q.	c #253253",
"R.	c #263667",
"S.	c #2C62CA",
"T.	c #327DEB",
"U.	c #3072EE",
"V.	c #2C62BE",
"W.	c #27529D",
"X.	c #274680",
"Y.	c #25335B",
"Z.	c #252F53",
"`.	c #252D4E",
" +	c #24283C",
".+	c #252837",
"++	c #252A41",
"@+	c #252C47",
"#+	c #263A70",
"$+	c #2F6EE6",
"%+	c #284F96",
"&+	c #28498B",
"*+	c #2A509C",
"=+	c #3174F1",
"-+	c #2E5BAD",
";+	c #385799",
">+	c #7F7F7E",
",+	c #73757A",
"'+	c #405A96",
")+	c #2D55A3",
"!+	c #306BDD",
"~+	c #3277E8",
"{+	c #2F6BDB",
"]+	c #2F6BD8",
"^+	c #2B5AB4",
"/+	c #2952A0",
"(+	c #2952A2",
"_+	c #2B5BB8",
":+	c #3074F2",
"<+	c #3175F7",
"[+	c #3176F9",
"}+	c #3380FC",
"|+	c #263566",
"1+	c #231F1E",
"2+	c #24211B",
"3+	c #231F1D",
"4+	c #242C4B",
"5+	c #264887",
"6+	c #3175F1",
"7+	c #3586FA",
"8+	c #3484F8",
"9+	c #337EF7",
"0+	c #3073F3",
"a+	c #2F70EB",
"b+	c #2F6ADE",
"c+	c #2D64CB",
"d+	c #2B5FC1",
"e+	c #2A5BB5",
"f+	c #2858B0",
"g+	c #2C55A2",
"h+	c #2954A4",
"i+	c #2956A9",
"j+	c #2B5EBC",
"k+	c #2D65CD",
"l+	c #3071EA",
"m+	c #3380EF",
"n+	c #284B89",
"o+	c #252C44",
"p+	c #284279",
"q+	c #294F96",
"r+	c #327BF0",
"s+	c #3177F8",
"t+	c #3071EB",
"u+	c #2C56A4",
"v+	c #777984",
"w+	c #38579A",
"x+	c #2B59B4",
"y+	c #3070E5",
"z+	c #2E6AD8",
"A+	c #3070E6",
"B+	c #2B5DBC",
"C+	c #254789",
"D+	c #264F9F",
"E+	c #2756B0",
"F+	c #2D66D5",
"G+	c #3176E8",
"H+	c #2E6BDE",
"I+	c #2E68D6",
"J+	c #306FE6",
"K+	c #3279EC",
"L+	c #263B6D",
"M+	c #24211D",
"N+	c #242A3E",
"O+	c #2A56A6",
"P+	c #3585F9",
"Q+	c #3484FA",
"R+	c #337FFB",
"S+	c #3278F6",
"T+	c #2A5199",
"U+	c #252B3F",
"V+	c #242220",
"W+	c #24252E",
"X+	c #25293A",
"Y+	c #274278",
"Z+	c #294B8B",
"`+	c #2A529C",
" @	c #327BF1",
".@	c #2D57A7",
"+@	c #71737D",
"@@	c #405A97",
"#@	c #2E58AA",
"$@	c #2F6BDE",
"%@	c #3174EA",
"&@	c #3177F9",
"*@	c #2754A7",
"=@	c #2857B0",
"-@	c #2D66D1",
";@	c #2F69D9",
">@	c #2E6CE0",
",@	c #2F71F0",
"'@	c #3071F1",
")@	c #273B6F",
"!@	c #242633",
"~@	c #274F98",
"{@	c #3483F7",
"]@	c #294C8C",
"^@	c #24262F",
"/@	c #24211E",
"(@	c #28437A",
"_@	c #2A519B",
":@	c #3174F2",
"<@	c #3278F9",
"[@	c #365699",
"}@	c #2E58AB",
"|@	c #3070E9",
"1@	c #3074F3",
"2@	c #3175F6",
"3@	c #2E6AD9",
"4@	c #2C5FC2",
"5@	c #2E66D4",
"6@	c #2F71EE",
"7@	c #3175F8",
"8@	c #3278FB",
"9@	c #3278FC",
"0@	c #3176FB",
"a@	c #3072F3",
"b@	c #252F55",
"c@	c #231E16",
"d@	c #242735",
"e@	c #26509B",
"f@	c #262E43",
"g@	c #2D58A7",
"h@	c #2C55A4",
"i@	c #2F6FE8",
"j@	c #3072E6",
"k@	c #2F6AD9",
"l@	c #2E67D5",
"m@	c #2E69D9",
"n@	c #3278FA",
"o@	c #253055",
"p@	c #26509C",
"q@	c #3075F6",
"r@	c #3178F7",
"s@	c #294A8C",
"t@	c #252939",
"u@	c #284379",
"v@	c #2C56A5",
"w@	c #2C64CE",
"x@	c #2E69DD",
"y@	c #2E6BDB",
"z@	c #2F71EF",
"A@	c #294B8C",
"B@	c #294C8D",
"C@	c #2D57A5",
"D@	c #3279EE",
"E@	c #306FE2",
"F@	c #27509C",
"G@	c #3075F7",
"H@	c #2D59A7",
"I@	c #253056",
"J@	c #29519C",
"K@	c #24252C",
"L@	c #274785",
"M@	c #3177F7",
"N@	c #2A57A7",
"O@	c #3175F5",
"P@	c #284A8C",
"Q@	c #3279FF",
"R@	c #29519B",
"S@	c #3174F5",
"T@	c #3278ED",
"U@	c #2D56A4",
"V@	c #2D65CF",
"W@	c #2E6ADA",
"X@	c #2E68D5",
"Y@	c #3172EB",
"Z@	c #3178FA",
"`@	c #29529C",
" #	c #3278F7",
".#	c #242221",
"+#	c #252A3E",
"@#	c #2A5099",
"##	c #3070ED",
"$#	c #306EE8",
"%#	c #3173F4",
"&#	c #306EDF",
"*#	c #2E68D4",
"=#	c #3071E9",
"-#	c #242323",
";#	c #253049",
">#	c #284888",
",#	c #375699",
"'#	c #2E59AD",
")#	c #3173F0",
"!#	c #3071ED",
"~#	c #306DDD",
"{#	c #3072EA",
"]#	c #3073F2",
"^#	c #26386B",
"/#	c #242224",
"(#	c #24221F",
"_#	c #262D40",
":#	c #2A539C",
"<#	c #337EF8",
"[#	c #70737E",
"}#	c #2D58AB",
"|#	c #2F6ADD",
"1#	c #3176F4",
"2#	c #2955A7",
"3#	c #2755AD",
"4#	c #2D65D0",
"5#	c #2F6ADC",
"6#	c #2E69D8",
"7#	c #242733",
"8#	c #295097",
"9#	c #3482F7",
"0#	c #284985",
"a#	c #284378",
"b#	c #295094",
"c#	c #327CF1",
"d#	c #7B7C81",
"e#	c #415A96",
"f#	c #2D539B",
"g#	c #306FE5",
"h#	c #2E6AD7",
"i#	c #3070E2",
"j#	c #2B60BB",
"k#	c #274989",
"l#	c #274F9F",
"m#	c #2D65D4",
"n#	c #3071E8",
"o#	c #2E6CE1",
"p#	c #2E68D7",
"q#	c #3481F4",
"r#	c #242836",
"s#	c #252B42",
"t#	c #2958AC",
"u#	c #337BF6",
"v#	c #29539C",
"w#	c #243A64",
"x#	c #242A3B",
"y#	c #294C8B",
"z#	c #72747E",
"A#	c #2D55A2",
"B#	c #2F6BD9",
"C#	c #2853A6",
"D#	c #2A58B2",
"E#	c #2F71EB",
"F#	c #3178F9",
"G#	c #3175F9",
"H#	c #3073F0",
"I#	c #263F77",
"J#	c #242630",
"K#	c #284D8F",
"L#	c #3177F6",
"M#	c #2D66D4",
"N#	c #2B5FC2",
"O#	c #2B5AB1",
"P#	c #2953A1",
"Q#	c #2C55A1",
"R#	c #2A58AE",
"S#	c #2B5DBA",
"T#	c #2C5FBF",
"U#	c #243C68",
"V#	c #294D8D",
"W#	c #3480F0",
"X#	c #7F7F80",
"Y#	c #2E5AAB",
"Z#	c #3481F2",
"`#	c #3279FB",
" $	c #3073F1",
".$	c #2F71ED",
"+$	c #2E69D5",
"@$	c #2B5DBD",
"#$	c #2C61C6",
"$$	c #2F68D3",
"%$	c #264481",
"&$	c #252E4F",
"*$	c #252B45",
"=$	c #252C4B",
"-$	c #263661",
";$	c #2954A9",
">$	c #2E69DC",
",$	c #3179EC",
"'$	c #2F6EE3",
")$	c #2B5CB7",
"!$	c #284E91",
"~$	c #254178",
"{$	c #253158",
"]$	c #252D4D",
"^$	c #252C4A",
"/$	c #25293D",
"($	c #242737",
"_$	c #242734",
":$	c #242533",
"<$	c #242A45",
"[$	c #273B71",
"}$	c #306DE2",
"|$	c #2A529D",
"1$	c #294B8F",
"2$	c #2A509D",
"3$	c #3174F7",
"4$	c #2F70EC",
"5$	c #306DE6",
"6$	c #2F6CE0",
"7$	c #2E6ADE",
"8$	c #2E6BE1",
"9$	c #3174E8",
"0$	c #3176F3",
"a$	c #2D68D7",
"b$	c #2D63C7",
"c$	c #3074F1",
"d$	c #337EF5",
"e$	c #3071EC",
"f$	c #263F71",
"g$	c #25325A",
"h$	c #253054",
"i$	c #252D4C",
"j$	c #242B4B",
"k$	c #242A46",
"l$	c #242A40",
"m$	c #242942",
"n$	c #253052",
"o$	c #27447D",
"p$	c #2F6AD5",
"q$	c #3277FA",
"r$	c #3074F6",
"s$	c #3073F6",
"t$	c #3687F2",
"u$	c #385CA3",
"v$	c #747782",
"w$	c #2E56A5",
"x$	c #2D59AE",
"y$	c #3177FB",
"z$	c #3277F6",
"A$	c #3584F6",
"B$	c #3687F4",
"C$	c #3484F5",
"D$	c #2D67C8",
"E$	c #284E92",
"F$	c #2954A7",
"G$	c #2C5EC1",
"H$	c #2D63CE",
"I$	c #2D64D3",
"J$	c #2D67D5",
"K$	c #2D67D6",
"L$	c #2E68DA",
"M$	c #2E68DB",
"N$	c #2B5CBC",
"O$	c #2A5AB5",
"P$	c #2B5CB6",
"Q$	c #2C60C3",
"R$	c #2F6BDD",
"S$	c #3177F5",
"T$	c #3381FC",
"U$	c #2E5AAE",
"V$	c #395DA4",
"W$	c #3A5DA3",
"X$	c #425B96",
"Y$	c #337DF3",
"Z$	c #3960AC",
"`$	c #2F6EE4",
" %	c #2F6DE5",
".%	c #2F6EE9",
"+%	c #2F6DE6",
"@%	c #2F6FEB",
"#%	c #3A5BA3",
"$%	c #3A5CA3",
"%%	c #375AA4",
"&%	c #375BA4",
"*%	c #337FF3",
"=%	c #3859A1",
"-%	c #78797F",
";%	c #3A5EA3",
">%	c #3686EC",
",%	c #797A80",
"'%	c #3A5DA2",
")%	c #7C7D81",
"                                                                                                                                ",
"                                                                                                                                ",
"                                                                                                                                ",
"                                                                                                                                ",
"                                                                                                                                ",
"                                                                                                                                ",
"                                                                                                                                ",
"                                                                                                                                ",
"                                                                                                                                ",
"                                                                                                                                ",
"                                                                                                                                ",
"                                                                                                                                ",
"                                                                                                                                ",
"                                                                                                                                ",
"                                                                                                                                ",
"                                                    . .                                                                         ",
"                                                  + @ # .                                                       $               ",
"            . . . . . . . . . . .               . % & * = . . . . . . . . . . . - . . . . - . . ; > > ; . . . . $ $             ",
"          , ' ) ! ~ ~ { ~ ~ ~ { ] ^ . . . . . . / ( _ : < [ } | } [ [ [ } | | 1 < { { 2 { 3 4 ~ { 4 4 ~ ~ | [ ' 5 . . . .       ",
"        , 6 7 8 9 0 a b c c a b d ( ~ ~ { { { { e f g h i j k l k k k k k l m m n o p q r s t a b u v c w x j y 4 { ~ z ' 5 .   ",
"      . ' A B C D E F G H I J J K g L M N O O P Q R S T U V W X Y Y Y Z `  ...+.@.#.$.%.&.*.=.-.G D ;.>.E ,.D w a b '.).!.~.# . ",
"      5 ~.{.].G ^./.(._.:.<.[.}.|.1.2.3.4.5.5.6.7.8.9.0.a.b.c.d.e.f.f.f.g.h.i.j.j.k.k.l.m.n.o.p.G q.r.s.t.u.u.t.t.G t.H c v.~.w.",
"  x., y.z.A.K B.r.C.D.E.F.G.H.I.J.K.L.M.N.O.O.P.Q.R.S.T.U.V.W.X.Y.Z.`.f.g.i. +j..+k.j. +++@+#+$+g %+&+*+=+s.t.u.u.u.u.u./.c -+;+",
">+,+'+)+!+~+{+]+^+/+(+_+:+p.<+[+}+J.|+1+2+O.O.O.2+3+4+5+6+7+8+9+0+a+b+c+d+e+f+@.g+h+i+f+j+Z k+l+m+n+o+p+&+q+r+s+t.u.u.u.^.D t+u+",
"x.v+w+x+y+z+A+B+C+D+E+F+G+H+I+J+K+L+N.2+O.O.O.O.O.2+M+N+O+P+-.t.^.^./.=.C C c c a c c c Q+K R+S+T+U+V+W+X+Y+Z+`+ @D t.u.t.E s+.@",
"+@@@#@$@%@&@k *@=@ .` -@;@>@,@'@)@P.O.O.O.O.O.O.O.O.O.!@~@a t.u.u.u.u.t.t.t.t.t.t.t.t.t.G t.-.{@]@^@O.O./@W+X+(@_@:@D u.u.E <@.@",
"[@}@|@1@w 2@3@4@5@H+6@7@8@9@0@a@b@c@2+O.O.O.O.O.O.O.O.d@e@0 t.u.u.u.u.u.u.u.0@u.u.u.u.u.u.u.t.'.]@^@O.O.O.O.V+f@(@_@ @t.u.E w g@",
"h@i@j@r.k@l@m@l+n@9@0@u.u.u.u.a@o@2+O.O.O.O.O.O.O.O.O.d@p@0 t.u.u.u.u.u.u.0@q@0@u.u.u.u.u.u.u.r@s@^@O.O.O.O.O.V+t@u@`+s+u.G a g@",
"v@t+w@x@y@z@J 0@u.u.u.u.u.u.u.a@o@O.O.O.O.O.O.O.O.O.O.d@p@0 t.u.u.u.u.u.u.u.0@u.u.u.u.u.0@u.t.9+A@^@O.O.O.O.O.O./@X+B@'.t.t.a g@",
"C@D@E@<+9@0@u.u.u.u.u.u.u.u.u.a@o@O.O.O.O.O.O.O.O.O.O.d@F@0 t.u.u.u.u.u.u.u.u.u.u.u.u.0@G@0@t.9+A@^@O.O.O.O.O.O.O.^@]@{@G t.a g@",
"H@b I t.^.u.u.u.u.u.u.u.u.u.u.a@I@O.O.O.O.O.O.O.O.O.O.d@J@0 t.u.u.u.u.u.u.u.u.u.u.u.u.u.^.u.u.r@s@^@O.O.O.O.O.O.O.K@L@M@t.t.a g@",
"N@s 9@u.u.u.u.u.u.u.u.u.u.u.u.O@I@O.O.O.O.O.O.O.O.O.O.d@J@0 t.u.u.u.u.u.u.u.u.u.u.u.u.u.u.u.t.9+A@^@O.O.O.O.O.O.O.^@P@s.Q@G b H@",
"H@s G u.u.u.u.u.u.u.u.u.u.u.u.a@I@O.O.O.O.O.O.O.O.O.O.d@R@0 t.u.u.u.u.u.u.u.u.u.u.u.u.u.u.u.t.9+A@^@O.O.O.O.O.O.O.^@s@S@Q@F a g@",
"H@A.J u.u.u.u.u.u.u.u.u.u.u.u.a@o@O.O.O.O.O.O.O.O.O.O.!@~@0 t.u.u.u.u.u.u.u.u.u.u.u.u.u.u.u.u.r@s@^@O.O.O.O.O.O.O.^@s@M@Q@G b H@",
"C@T@E@<+(./.t.u.u.u.u.u.u.u.u.a@o@O.O.O.O.O.O.O.O.O.O.d@R@a t.u.u.u.u.u.u.u.u.u.u.u.u.u.u.u.t.9+A@^@O.O.O.O.O.O.O.^@A@9+t.t.a g@",
"U@A+V@W@X@Y@Z@/.u.u.u.u.u.u.u.a@o@O.O.O.O.O.O.O.O.O.O.d@`@8+G u.u.u.u.u.u.u.u.u.u.u.u.u.u.u.^. #s@^@O.O.O.O.O.O..#+#@#0 t.t.a g@",
"v@##$#%#&#*#*#=#7@9@/.u.u.u.u.a@I@O.O.O.O.O.O.O.O.O.O.d@J@a t.u.u.u.u.u.u.u.u.u.u.u.u.u.u.u.t.9+A@^@O.O.O.O.O.-#;#>#r.D u.t.a g@",
",#'#)#!#&@<+~#B+D.~#{#]#(.u.0@2@^#/#O.O.O.O.O.O.O.O.O.d@R@0 t.u.u.u.u.u.u.u.u.u.u.u.u.u.u.u.t. #s@^@O.O.O.O.(#_#u@:#<#t.u.t.0 g@",
"[#,#}#|#I.&@1#2#3# .` 4#5#s+B.&@6#b.(#O.O.O.O.O.O.O.O.7#8#0 t.u.u.t.t.t.t.t.t.t.t.t.t.t.t.G -.9#0#7#(#W+^@^@X+a#b#c#;.u.u.Q@<@.@",
"d#e#f#U g#h#i#j#k#l#E+m#n#o#p#C.q#q+r#M+O.O.O.O.O.O./@s#t#c /.Q@^.u#=.C c c 0 0 0 0 0 a c Q+C S+v#w#x#a#y#]@B@`+ @;.t.u.u.E s+.@",
"x.z#'+A#!+~+{+B#_+(+C#D#E#<#F#G#I H#I#J#M+O.O.O.V+j.o@K#c#P+0 L#j |#M#N#O#@.P#J@8#R@J@Q#R#S#T#J+m+]@U#V#W#M 9+s+t.u.u.u.u.H t+u+",
"  X#, y.Y#Z#`#G# $.$+$@$#$B#[.H.$+S@$$%$&$*$=$o@-$;$>$,$'$)$!$~${$]$^$g./$j.($d@7#_$:$t@N+<$[$}$g |$1$2$2@D F ^.u.u.u.u.-.v -+,#",
"      , 6 y m 3$/.^.9@&@4$5$6$<.7$8$9$0$a$b$a$c$d$e$(+f$a.g$h$c.i$]$]$j$i$k$*$++i.i.l$m$n$o$p$q$t.r$q.s$0@t.u.G G G ^.<@b t$u$v$",
"        , 6 w$x$m G F G y$y$I I I z$A.s A$B$A$s C$D$E$F$G$H$I$J$K$L$M$L$m#H$Z N$O$O$P$Q$R$S$T$9@G E >.E F ^.H c b b 0$U$V$W$# ; ",
"          , X$;+y Y$a b b a P+P+d ( { { { 2 { { Z$f d$`$ %.%+%$+8.[.+%[.8.@%k m m 0$B Q A$a t a a c v c 0  #y+!.V${ #%' 5 . .   ",
"            . 5 ' $%~ { 4 %%&%{ ] ^ . . . . . . = ( *%-+=%! z z ! z z z ! ! [ 1 | | { { { ~ ~ ~ ~ ~ { ~ ~ | z ' 5 . . .         ",
"                . . . ; > -%> - .               . ;%>%~.w.. . . . . . . . - ,%- . . . . . . . . . . . . . . . .                 ",
"                      $                         . # '%# )%                                                                      ",
"                                                  . . .                                                                         ",
"                                                                                                                                ",
"                                                                                                                                ",
"                                                                                                                                ",
"                                                                                                                                ",
"                                                                                                                                ",
"                                                                                                                                ",
"                                                                                                                                ",
"                                                                                                                                ",
"                                                                                                                                ",
"                                                                                                                                ",
"                                                                                                                                ",
"                                                                                                                                ",
"                                                                                                                                ",
"                                                                                                                                ",
"                                                                                                                                "};
