/* XPM */
static char * 22_xpm[] = {
"64 64 568 2",
"  	c #808080",
". 	c #7F7F7F",
"+ 	c #7B7C81",
"@ 	c #70737E",
"# 	c #375699",
"$ 	c #2C56A5",
"% 	c #2D56A4",
"& 	c #2D57A5",
"* 	c #2D59A7",
"= 	c #2A57A7",
"- 	c #2C55A4",
"; 	c #365699",
"> 	c #71737D",
", 	c #7F7F7E",
"' 	c #7F7F80",
") 	c #72747E",
"! 	c #415A96",
"~ 	c #2E59AD",
"{ 	c #3070ED",
"] 	c #3070E6",
"^ 	c #3278ED",
"/ 	c #3584F7",
"( 	c #3585F8",
"_ 	c #3584F8",
": 	c #3279EE",
"< 	c #3071EB",
"[ 	c #2F6FE8",
"} 	c #2E58AB",
"| 	c #405A97",
"1 	c #777984",
"2 	c #73757A",
"3 	c #787B84",
"4 	c #405A96",
"5 	c #2D539B",
"6 	c #2D58AB",
"7 	c #3173F0",
"8 	c #306EE8",
"9 	c #2D65CF",
"0 	c #306FE2",
"a 	c #3177FA",
"b 	c #3178FC",
"c 	c #3278FC",
"d 	c #327AFC",
"e 	c #2C64CE",
"f 	c #3072E6",
"g 	c #3070E9",
"h 	c #2E58AA",
"i 	c #38579A",
"j 	c #415B97",
"k 	c #2D55A2",
"l 	c #2B58B0",
"m 	c #2F6ADD",
"n 	c #3071ED",
"o 	c #3173F4",
"p 	c #2E6ADA",
"q 	c #3175F7",
"r 	c #3176FC",
"s 	c #3177FC",
"t 	c #2E69DD",
"u 	c #3072EF",
"v 	c #3074F3",
"w 	c #2F6BDE",
"x 	c #2B59B4",
"y 	c #2D55A3",
"z 	c #787A84",
"A 	c #7C7D82",
"B 	c #415B98",
"C 	c #2E5AAB",
"D 	c #306BDD",
"E 	c #306FE5",
"F 	c #306FE9",
"G 	c #3177F9",
"H 	c #306EDF",
"I 	c #2E68D5",
"J 	c #3178FB",
"K 	c #3279FE",
"L 	c #2E6BDB",
"M 	c #2F6AD9",
"N 	c #337FF9",
"O 	c #3174EA",
"P 	c #3070E5",
"Q 	c #2E5BAB",
"R 	c #395DA3",
"S 	c #425B97",
"T 	c #2E5BAE",
"U 	c #3481F2",
"V 	c #3277E8",
"W 	c #2E6AD7",
"X 	c #2E68D4",
"Y 	c #3172EB",
"Z 	c #3279FD",
"` 	c #3176FB",
" .	c #2F71EF",
"..	c #2E67D5",
"+.	c #3175F6",
"@.	c #2E6AD8",
"#.	c #3686F3",
"$.	c #2F5EAE",
"%.	c #425B96",
"&.	c #2E56A5",
"*.	c #3175F3",
"=.	c #3279FB",
"-.	c #2F6BDB",
";.	c #3070E2",
">.	c #3176F4",
",.	c #306DDD",
"'.	c #3178FA",
").	c #2E69D9",
"!.	c #2E6AD9",
"~.	c #3072F2",
"{.	c #327AFB",
"].	c #337CFE",
"^.	c #3482F3",
"/.	c #2E59A7",
"(.	c #385799",
"_.	c #2D59AE",
":.	c #3174F7",
"<.	c #3175F9",
"[.	c #2F6BD9",
"}.	c #2B60BB",
"|.	c #2955A7",
"1.	c #2B5DBC",
"2.	c #3071E9",
"3.	c #3071EA",
"4.	c #2C5FC2",
"5.	c #2754A7",
"6.	c #2F6BD8",
"7.	c #3173EE",
"8.	c #3380FA",
"9.	c #2C63C2",
"0.	c #39589B",
"a.	c #3073F1",
"b.	c #2B5BB8",
"c.	c #274989",
"d.	c #2755AD",
"e.	c #2D65CE",
"f.	c #3175F8",
"g.	c #3278FA",
"h.	c #2E66D4",
"i.	c #2857B0",
"j.	c #254789",
"k.	c #2B5AB4",
"l.	c #327AFE",
"m.	c #3072EC",
"n.	c #395AA2",
"o.	c #3A5CA3",
"p.	c #337DF3",
"q.	c #2F71ED",
"r.	c #2952A2",
"s.	c #274F9F",
"t.	c #2B5DC0",
"u.	c #2E6BDE",
"v.	c #264F9F",
"w.	c #2952A0",
"x.	c #3070E7",
"y.	c #327AFF",
"z.	c #337FF8",
"A.	c #3A5CA4",
"B.	c #3380F8",
"C.	c #3178FD",
"D.	c #2E69D5",
"E.	c #2853A6",
"F.	c #2756B0",
"G.	c #2B5EC1",
"H.	c #3072EA",
"I.	c #2F71EE",
"J.	c #80807F",
"K.	c #7B7D81",
"L.	c #3A5DA4",
"M.	c #2B5DBD",
"N.	c #2A58B2",
"O.	c #2D65D4",
"P.	c #2D65D0",
"Q.	c #3073F2",
"R.	c #2D66D1",
"S.	c #2D66D5",
"T.	c #2C5CBA",
"U.	c #3174F6",
"V.	c #787A7F",
"W.	c #395CA4",
"X.	c #3177FB",
"Y.	c #2F70EC",
"Z.	c #2C61C6",
"`.	c #2F71EB",
" +	c #3071E8",
".+	c #2F6ADC",
"++	c #3278FB",
"@+	c #2F69D9",
"#+	c #3176E8",
"$+	c #3074F2",
"%+	c #2C61C7",
"&+	c #306FE8",
"*+	c #327AFD",
"=+	c #3380F9",
"-+	c #78797F",
";+	c #375AA4",
">+	c #306DE6",
",+	c #337EF8",
"'+	c #2E6CE1",
")+	c #3177F8",
"!+	c #2E6CE0",
"~+	c #337EF9",
"{+	c #306EDE",
"]+	c #306EE0",
"^+	c #375BA4",
"/+	c #3585F9",
"(+	c #2F6CE0",
"_+	c #2F6DE4",
":+	c #3178F9",
"<+	c #2E68D7",
"[+	c #2F71F0",
"}+	c #2E68D6",
"|+	c #306EE6",
"1+	c #7B7D82",
"2+	c #3072F3",
"3+	c #3175F5",
"4+	c #3071F1",
"5+	c #306FE6",
"6+	c #3176F9",
"7+	c #306DE0",
"8+	c #4260A1",
"9+	c #3582F3",
"0+	c #2E6ADE",
"a+	c #2F6EE6",
"b+	c #3481F4",
"c+	c #2E69D8",
"d+	c #26386B",
"e+	c #253056",
"f+	c #253055",
"g+	c #252F55",
"h+	c #273B6F",
"i+	c #3279EC",
"j+	c #3380FC",
"k+	c #3070EB",
"l+	c #2E6ADF",
"m+	c #787B86",
"n+	c #3960AD",
"o+	c #3277F6",
"p+	c #2E6BE1",
"q+	c #3174F5",
"r+	c #3073F0",
"s+	c #294F96",
"t+	c #253256",
"u+	c #242224",
"v+	c #24211C",
"w+	c #24211B",
"x+	c #231E16",
"y+	c #242325",
"z+	c #263B6D",
"A+	c #3278F0",
"B+	c #2F6DDD",
"C+	c #337EF6",
"D+	c #3174E8",
"E+	c #2F68D3",
"F+	c #263F77",
"G+	c #242836",
"H+	c #24221F",
"I+	c #242225",
"J+	c #263566",
"K+	c #2C63CF",
"L+	c #2F6EE5",
"M+	c #337FF6",
"N+	c #3176F3",
"O+	c #264481",
"P+	c #242630",
"Q+	c #24211D",
"R+	c #231F1E",
"S+	c #263565",
"T+	c #2F6FE9",
"U+	c #3380F7",
"V+	c #3584F6",
"W+	c #2D68D7",
"X+	c #252E4F",
"Y+	c #273D70",
"Z+	c #3481F0",
"`+	c #3A5EA4",
" @	c #3687F4",
".@	c #2D63C7",
"+@	c #252B45",
"@@	c #263556",
"#@	c #3481EF",
"$@	c #252C4B",
"%@	c #3074F1",
"&@	c #273F70",
"*@	c #3482F0",
"=@	c #777A85",
"-@	c #3960AC",
";@	c #3484F5",
">@	c #337EF5",
",@	c #263661",
"'@	c #242220",
")@	c #253253",
"!@	c #327AED",
"~@	c #3483F4",
"{@	c #375FAC",
"]@	c #777A86",
"^@	c #435C97",
"/@	c #3A5EA3",
"(@	c #337CEF",
"_@	c #2D67C8",
":@	c #3071EC",
"<@	c #2954A9",
"[@	c #24283A",
"}@	c #231F1D",
"|@	c #263667",
"1@	c #2F6FEA",
"2@	c #2D64C8",
"3@	c #4362A1",
"4@	c #787B85",
"5@	c #3A5DA2",
"6@	c #3686EC",
"7@	c #337FF3",
"8@	c #284E92",
"9@	c #2E69DC",
"0@	c #24211E",
"a@	c #242C4B",
"b@	c #2C62CA",
"c@	c #2955AA",
"d@	c #264A8B",
"e@	c #3380F3",
"f@	c #388BEC",
"g@	c #4361A0",
"h@	c #2E5BAD",
"i@	c #2F6EE4",
"j@	c #2954A7",
"k@	c #263F71",
"l@	c #3179EC",
"m@	c #284D8F",
"n@	c #252B42",
"o@	c #242733",
"p@	c #242735",
"q@	c #242633",
"r@	c #242A3E",
"s@	c #264887",
"t@	c #327DEB",
"u@	c #244175",
"v@	c #264F9C",
"w@	c #3072F0",
"x@	c #2E5BAF",
"y@	c #395EA3",
"z@	c #7C7D81",
"A@	c #777A84",
"B@	c #3859A1",
"C@	c #2F6DE5",
"D@	c #2C5EC1",
"E@	c #263664",
"F@	c #2F6EE3",
"G@	c #327CF1",
"H@	c #2958AC",
"I@	c #295097",
"J@	c #29519B",
"K@	c #29519C",
"L@	c #29529C",
"M@	c #274F98",
"N@	c #27509C",
"O@	c #26509C",
"P@	c #26509B",
"Q@	c #2A56A6",
"R@	c #3175F1",
"S@	c #3072EE",
"T@	c #3071F0",
"U@	c #385AA4",
"V@	c #2F6EE9",
"W@	c #2D63CE",
"X@	c #25325A",
"Y@	c #2B5CB7",
"Z@	c #3484F8",
"`@	c #3586FA",
" #	c #2C62BE",
".#	c #2B5BBB",
"+#	c #3072F1",
"@#	c #395AA3",
"##	c #395AA1",
"$#	c #2F6DE6",
"%#	c #2D64D3",
"&#	c #253054",
"*#	c #284E91",
"=#	c #3279FC",
"-#	c #27529D",
";#	c #252F50",
">#	c #2C5FC3",
",#	c #395BA3",
"'#	c #2D67D5",
")#	c #254178",
"!#	c #3177F6",
"~#	c #3279FF",
"{#	c #337EF7",
"]#	c #274680",
"^#	c #252D4A",
"/#	c #2C5FC4",
"(#	c #3175F4",
"_#	c #3A5BA4",
":#	c #2D67D6",
"<#	c #252D4C",
"[#	c #253158",
"}#	c #3073F3",
"|#	c #25335B",
"1#	c #242A44",
"2#	c #2D62C9",
"3#	c #2E68DA",
"4#	c #252D4D",
"5#	c #337BF6",
"6#	c #2F70EB",
"7#	c #252F53",
"8#	c #252B46",
"9#	c #2E68DB",
"0#	c #252C4A",
"a#	c #2D66D4",
"b#	c #3380FB",
"c#	c #2F6ADE",
"d#	c #252D4E",
"e#	c #242B4B",
"f#	c #252A43",
"g#	c #2B5FC2",
"h#	c #2D64CB",
"i#	c #2D62C8",
"j#	c #25293D",
"k#	c #2B5AB1",
"l#	c #2B5FC1",
"m#	c #2F6FEB",
"n#	c #242A46",
"o#	c #2A56A9",
"p#	c #2A5BB5",
"q#	c #25293E",
"r#	c #252A42",
"s#	c #797A80",
"t#	c #242737",
"u#	c #2953A1",
"v#	c #3075F6",
"w#	c #2858B0",
"x#	c #24283C",
"y#	c #2A59B5",
"z#	c #395BA4",
"A#	c #2B5CBC",
"B#	c #252A41",
"C#	c #2A55AA",
"D#	c #2A5AB5",
"E#	c #2C55A2",
"F#	c #252837",
"G#	c #327DF2",
"H#	c #242734",
"I#	c #2954A4",
"J#	c #242738",
"K#	c #2854A5",
"L#	c #3482F2",
"M#	c #2B5CB6",
"N#	c #242A40",
"O#	c #242533",
"P#	c #2956A9",
"Q#	c #2855A5",
"R#	c #3483F2",
"S#	c #2C60C3",
"T#	c #242942",
"U#	c #252939",
"V#	c #2C55A1",
"W#	c #24293D",
"X#	c #285AB2",
"Y#	c #3687F3",
"Z#	c #2F6BDD",
"`#	c #253052",
" $	c #2A58AE",
".$	c #3075F7",
"+$	c #3484FA",
"@$	c #2B5EBC",
"#$	c #252C48",
"$$	c #2E67D1",
"%$	c #3688F5",
"&$	c #3177F5",
"*$	c #27447D",
"=$	c #242A45",
"-$	c #2B5DBA",
";$	c #252C47",
">$	c #253565",
",$	c #3177F3",
"'$	c #385BA4",
")$	c #3381F9",
"!$	c #3381FC",
"~$	c #2F6AD5",
"{$	c #273B71",
"]$	c #2C5FBF",
"^$	c #337FFB",
"/$	c #2D65CD",
"($	c #263A70",
"_$	c #2D63C8",
":$	c #3277FA",
"<$	c #306DE2",
"[$	c #3278F6",
"}$	c #3482F7",
"|$	c #3278F7",
"1$	c #3178F7",
"2$	c #337FF7",
"3$	c #3483F7",
"4$	c #3380EF",
"5$	c #29539C",
"6$	c #284985",
"7$	c #294A8C",
"8$	c #294B8C",
"9$	c #294C8C",
"0$	c #2A5199",
"a$	c #3074F6",
"b$	c #2A529D",
"c$	c #243A64",
"d$	c #24262F",
"e$	c #252B3F",
"f$	c #284B89",
"g$	c #284F96",
"h$	c #3073F5",
"i$	c #3481F9",
"j$	c #3584F9",
"k$	c #327BFF",
"l$	c #294B8F",
"m$	c #243C68",
"n$	c #242A3B",
"o$	c #252C44",
"p$	c #28498B",
"q$	c #327BFE",
"r$	c #3073F6",
"s$	c #2A509D",
"t$	c #294D8D",
"u$	c #284378",
"v$	c #24252E",
"w$	c #284279",
"x$	c #2A509C",
"y$	c #3176F7",
"z$	c #3480F0",
"A$	c #294C8B",
"B$	c #25293A",
"C$	c #3174F1",
"D$	c #274278",
"E$	c #3177FD",
"F$	c #3277F8",
"G$	c #294C8D",
"H$	c #294B8B",
"I$	c #327BF0",
"J$	c #2E5BAC",
"K$	c #2A529C",
"L$	c #262D40",
"M$	c #242323",
"N$	c #262E43",
"O$	c #28437A",
"P$	c #395DA4",
"Q$	c #327BF1",
"R$	c #295094",
"S$	c #284379",
"T$	c #253049",
"U$	c #242221",
"V$	c #2A519B",
"W$	c #2A539C",
"X$	c #284888",
"Y$	c #252A3E",
"Z$	c #24252C",
"`$	c #3174F2",
" %	c #3A5BA3",
".%	c #2A5099",
"+%	c #284A8C",
"@%	c #274785",
"#%	c #2E5AAE",
"$%	c #3278F9",
"%%	c #3177F7",
"&%	c #3171E5",
"*%	c #3A5DA3",
"=%	c #3687F2",
"-%	c #3689F2",
";%	c #385CA3",
">%	c #747782",
",%	c #2C56A4",
"'%	c #2D57A7",
")%	c #2D58A7",
"                                              . + @ # $ % & * * = * & $ - ; > . ,                                               ",
"                                            ' ) ! # ~ { ] ^ / ( ( _ : < [ } | 1 2 .                                             ",
"                                            3 4 5 6 7 8 9 0 a b c d 0 e f g h i 4 3                                             ",
"                                          3 j k l m n o p q r r r s q t u v w x y j z A                                         ",
"                                        3 B C D E F G H I J r r r K c L M N O P D Q R S 3                                       ",
"                                      3 B T U V W G q X Y Z r r r r `  ...+.G @.V / #.$.B 3                                     ",
"                                    A %.&.*.=.-.;.>.,.X '.s r r r r r a ).!.~.] -.{.].^./.S A                                   ",
"                                    z (._.:.<.[.}.|.1.2.Z r r r r r r ` 3.4.5.1.6.7.b 8.9.0.A                                   ",
"                                  A S T *.Z a.b.c.d.e.f.r r r r r r r r g.h.i.j.k.u K l.m.n.A                                   ",
"                                  A o.p.b K q.r.s.t.,.c r r r r r r r r c u.t.v.w.x.Z y.z.A.A                                   ",
"                                  A A.B.C.c D.E.F.G.H.Z r r r r r r r r ` I.G.F.r.e.J C.B.A.A                                   ",
"                                J.K.L._ b G M.N.O.P.Q.r r r r r r r r r r f.R.S.b.T.U.b _ L.A                                   ",
"                                  V.W._ X.Y.Z.`. +.+J r r r r r r r r r r ++@+#+$+%+&+*+=+A.A                                   ",
"                                  -+;+B.X.>+[.,+'+)+r r r r r r r r r r r c !+u.~+{+]+d =+A.A                                   ",
"                                  V.^+/+d (+_+:+<+7.` r r r r r r r r r r ` [+}+q |+_+a B.A.A                                   ",
"                                  1+L./+d ]+|+<.x.G +.2+2+2+2+2+3+2+2+2+2+2+4+5+6+F 7+a _ L.A                                   ",
"                                  A 8+9+d 0+a+d b+c+d+e+f+f+f+e+e+e+f+f+f+g+h+i+j+k+l+{.9+8+A                                   ",
"                                    m+n+o+p+q+r+s+t+u+v+v+v+v+v+v+v+v+v+w+x+y+z+k+A+B+C+n+m+                                    ",
"                                    A L./ D+E+F+G+H+v+v+v+v+v+v+v+v+v+v+v+w+v+I+J+K+L+M+A.A                                     ",
"                                    A L.( N+O+P+Q+v+v+v+v+v+v+v+v+v+v+v+v+v+v+w+R+S+T+U+A.A                                     ",
"                                    A L.V+W+X+Q+v+v+v+v+v+v+v+v+v+v+v+v+v+v+v+v+w+I+Y+Z+L.A                                     ",
"                                    A `+ @.@+@v+v+v+v+v+v+v+v+v+v+v+v+v+v+v+v+v+v+v+@@#@L.A                                     ",
"                                    A L.V+W+$@v+v+v+v+v+v+v+v+v+v+v+v+v+v+v+v+v+v+v+@@#@L.A                                     ",
"                                    A L.( %@f+v+v+v+v+v+v+v+v+v+v+v+v+v+v+v+v+v+v+y+&@*@L.A                                     ",
"                                A A =@-@;@>@,@'@v+v+v+v+v+v+v+v+v+v+v+v+v+v+v+v+w+)@!@~@{@]@A                                   ",
"                              A ^@/@n+(@_@:@<@[@v+v+v+v+v+v+v+v+v+v+v+v+v+v+v+w+}@|@1@2@(@n+3@4@                                ",
"                              A 5@6@7@>@8@r.9@f+0@v+v+v+v+v+v+v+v+v+v+v+v+v+v+Q+a@b@c@d@C+e@f@g@A                               ",
"                              A ^@R h@i@j@k@l@m@n@o@p@p@p@p@q@p@p@p@p@p@p@p@q@r@s@t@u@v@w@x@y@^@A                               ",
"                                z@A@B@C@D@E@F@G@H@I@J@K@L@J@M@J@K@K@N@O@O@P@M@Q@R@S@E@l T@U@=@A                                 ",
"                                  A n.V@W@X@Y@/+=+z.z.B.Z@B.z.z.z.z.z.z.z.z.B./+`@ #t+.#+#@#A                                   ",
"                                  A ##$#%#&#*#z.Z s s s b s s s s s s s s s s =#Z@-#;#>#~.,#A                                   ",
"                                  A ##a+'#;#)#!#~#r r r r r r r r r r r r r r s {#]#^#/#(#_#A                                   ",
"                                  A n.1@:#<#[#+#K r r r r r r r r r r r r r r K }#|#1#2#~.,#A                                   ",
"                                  A ##_+3#4#4#m 5#s r r r r r r r r r r r r r K 6#7#8#2#~.@#A                                   ",
"                                  A ##$#9#4#0#a#b#s r r r r r r r r r r r r r Z c#d#8#2#~.@#A                                   ",
"                                  A ##_+3#e#f#g#8.s r r r r r r r r r r r r s b#h#8#8#i#~.@#A                                   ",
"                                  A n.1@O.<#j#k#=+s r r r r r r r r r r r r s 8.l#f#f#G.~.,#A                                   ",
"                                  1+n.m#W@n#[@o#=+s r r r r r r r r r r ` r s 8.p#q#r#t.(#_#A                                   ",
"                                  s#@#~.i#+@t#u#z.s r r r r r r r r r ` v#` s =+w#x#q#y#*._#A                                   ",
"                                  1+z#*.A#B#p@K@z.s r r r r r r r r r r ` r s =+o#[@[@C#*.z#A                                   ",
"                                  A _#*.D#q#o@I@z.s r r r r r r r r r r r r s B.E#F#[@o#G#U@1+                                  ",
"                                  A _#N+D#q#H#J@z.s r r r r r r r r r r r r s =+I#J#J#K#L#L.A                                   ",
"                                  A L.^.M#N#O#K@z.s r r r r r r r r r r r r s =+P#[@J#Q#R#L.A                                   ",
"                                  A L.~@S#T#U#V#B.s r r r r r r r r ` r r r s =+w#x#W#X#Y#`+A                                   ",
"                                  A L.V+Z#`#r@ $=+s r r r r r r r K .$` r r b +$@$B##$$$%$L.A                                   ",
"                                  A A.B.&$*$=$-$+$b r r r r r r r r ` r r r s {.i#;$>$,$( '$1+                                  ",
"                                  A A.)$!$~${$]$8.=#s s K s r s s r s s r s =#^$/$($_$b#)$W.A                                   ",
"                                  A A.B.c :$<$5+[$}$|${#|${#1${#{#1${#{#1$2$3$[$3.a+~+=#B.A.A                                   ",
"                                  A A.B.b s C+4$5$6$7$8$7$8$7$8$8$7$8$8$7$9$9$0$4$C+b b _ L.K.                                  ",
"                                  A A.=+y.a$b$9$c$o@d$d$d$d$d$d$d$d$d$d$d$d$d$e$f$g$h$l.i$W.V.                                  ",
"                                  A L.j$k$h$l$m$n$H+v+v+v+v+v+v+v+v+v+v+v+v+v+'@o$p$u q$j$W.V.                                  ",
"                                  A A.=+y.r$s$t$u$v$v+v+v+v+v+v+v+v+v+v+v+v+v+v$w$x$y$k$=+A.K.                                  ",
"                                  A A.z.C.` +.z$A$d$v+v+v+v+v+v+v+v+v+v+v+v+0@B$p$C$s y.N A.A                                   ",
"                                  A _#|$K s l.U+9$d$v+v+v+v+v+v+v+v+v+v+v+v+v$D$s+y$r E$F$_#A                                   ",
"                                  A ##P *+r C.{#G$B$H+v+v+v+v+v+v+v+v+v+v+'@B$H$I$s r l.+#@#A                                   ",
"                                  A S J$=+b K )+K$u$L$M$v+v+v+v+v+v+v+v+'@N$O$K$)+r s N T S A                                   ",
"                                    z P$_ b r s Q$R$S$T$U$v+v+v+v+v+v+0@U#O$V$Q$s r s B.W.z J.J.                                ",
"                                    A L._ b r r q$G@W$X$Y$d$d$d$d$Z$d$B$S$V$`$l.r r b _ L.A J.                                  ",
"                                    A  %N+K r r s q$,+u .%8$7$7$+%@%9$G$K$Q$l.s r r s 2$A.A                                     ",
"                                    A S #%$%r r r r s l.z.{#%%q+y$%%3$2$)+s r r r r *+&%##A                                     ",
"                                      z P$_ =#r r r r r s s ~#~#~#s b s r r r s K Z =+J$S A                                     ",
"                                      A *%=%j$*+y.~#s s s s b C.b s s s b y.y.y.l.=+-%R z                                       ",
"                                      A ^@;%h@< )+$%z.B.B.B._ B._ B.B.B.B.N $%)+< h@R ^@A                                       ",
"                                        K.>%# ,%'%'%)%)%)%)%* )%* )%)%)%)%)%'%'%,%(.A@A                                         "};
