/* XPM */
static char *result[] = {
/* columns rows colors chars-per-pixel */
"64 64 78 1 ",
"  c #606160",
". c gray38",
"X c #626161",
"o c #636161",
"O c #616261",
"+ c #626261",
"@ c #626262",
"# c #636262",
"$ c gray39",
"% c #646363",
"& c #636463",
"* c #646464",
"= c #656464",
"- c #646564",
"; c #656565",
": c #666565",
"> c #676565",
", c #656665",
"< c gray40",
"1 c #676666",
"2 c #666766",
"3 c #676767",
"4 c #686666",
"5 c #686767",
"6 c #696767",
"7 c #686868",
"8 c #696868",
"9 c #686968",
"0 c DimGray",
"q c #6A6868",
"w c #6A6969",
"e c #6B6969",
"r c #686B68",
"t c #696A69",
"y c #6A6A6A",
"u c #6B6A6A",
"i c gray42",
"p c #6C6A6A",
"a c #6C6B6B",
"s c #6D6B6B",
"d c #6A6C6A",
"f c #6C6C6C",
"g c #6D6C6C",
"h c #6C6D6C",
"j c #6D6D6D",
"k c #6E6D6D",
"l c #6D6F6C",
"z c gray43",
"x c #6F6E6E",
"c c #6F6F6F",
"v c #706F6F",
"b c gray44",
"n c #717070",
"m c #717171",
"M c #727171",
"N c #737171",
"B c #727272",
"V c #737272",
"C c gray45",
"Z c #747070",
"A c #757171",
"S c #747272",
"D c #757272",
"F c #747373",
"G c #757373",
"H c #767272",
"J c #767373",
"K c #777373",
"L c #757473",
"P c #747474",
"I c #757474",
"U c gray46",
"Y c #767474",
"T c #777474",
"R c #767575",
"E c #777575",
"W c #767676",
"Q c #777676",
/* pixels */
";;;;;**;**$$*$$$0cNRQYQQTQQTQQTQQERQQRQRWQRWEQQEEQoooooooRRRRRRI",
";;****;$$$;$$;$$<iMFRYQQTQQTQQTQQTQQTQQERQQRQRWoooooooEQQQQQQQQW",
"*$$$***;$*;;;*;;*7ybPRYRERQEQQTQQTQQTQQTQQTQoooooooRWQRWERWEQQEE",
"$*@$;**;;;*;;**;**<0fzCIYRREURERQEQQYQQTooooooooTQQERQQRQQRQRWQR",
"*;;;*;;*;;**;;*;;**;:5yjzmVMUUYRREUWEooooooooTQQTQQTQQTQQTQQERQQ",
";*;;**;**;;*;;;;;;*;:%:>qsczbBCUUooooooooQQRQEQQTQQTQQTQQTQQTQQT",
";**;;*;;**;:=::=::5wiijczmNnIoooooooooQRWQRWEQRQQRQEQQTQQTQQTQQT",
"*;==::=::5wiijjifccmVBPIIYooooooooEEDRQYRRRQQYWQRWEQRQQRQQRQEQQT",
">wiijjffccmVCPICRIIYUQRURRoooooooTQQJQEHEEJIQRURRWQRWQRWRRRREURR",
"mCSFPICRIIYURRRQRRRRWEQQYQQToooooooooooooooooooYJIWIRUUWRUURCUII",
"IEURQWQRRRRWQRQEQQYQQTQQTQQTQQZZoooooooooooooooUIIYNMMgxkajjifcz",
"QRQQRQEQQYQQTQQTQQTQQTQQTQQERZZZZZZZZZRRRRRREoomzjjyi81::%::#%:5",
"TQQTQQTQQTQQTQQTQQTQQERoooooooooooooZZRRIIFCooo81==::;$;;$$****$",
"TQQTQQTQQTQQToooooooooooooooooooooooZCmzjf0ooo%;*;;*;;***$@;;;;$",
"TQQTQQEooooooooooooooooooooooooooooZZ78=X#ooo***;;;**;$.*$***;;*",
"oooooooooooooooooooooooooooooooIZZZZa1@.@*oo*;;;*;;*$$@@$$;;**;;",
"oooooooooooooooooooooZZZZZZZZZZZZZZZZZZZZooo;*;;$$*@@$@*;**;;;*;",
"ooooooooooooZZZZZZZZZZZZZZZZZZZZZZZZZZZZZooZZZ**@@$$****;;;*;;**",
"ooooooZZZZZZZZZZZZHEQJQQTQQEZZZZRQZZZZZZoooZZZ.$$***;;;;*;;**;;*",
"FZZZZZZZZZZWIQWRQRQQREQQTQQZZZZZZZZZZZZZooZZ8=#$@*;**;;;**;;*;;;",
"ZZZZZZWQQQQWEEQQEWRQWRQRZZZZZZZZZZZQEQRRooYFmifw1=;*;*;;;*;;;;;;",
"ZZERYEURURWRWQQQQWEEQQQWZZZZZZZZZTQQTQQYooYRYYFBjj7<;**;;;;;;;;;",
"ZZZZQEYTTIYWIUUUWRWQWEEQQQWRZZZZZZZZZZQToooQQYRYYCb85;$;;;;;;;;$",
"RZZZZZZZZZZZZZZZZZZZZZZZZZZZZZZZZZZZZZZZZooQQYQRYWFVxe4>==:===#+",
"ooooooooooooooooooooooooooooooooooooooooooooQTQQYQQYRCmbzjjiihtr",
"oooooooooooooooooooooooooooooooooooooooooooooEQQTQQYQREQUIICFLFY",
"mPJWQYQQTQQTQQTQQERZZZZZZZZZZooooooooooooQQoooQREQQTQQEWRQUYGWIW",
"0zFIRYRQYQQTQQTZZZZZZZoooooooooooooooWZZZQEEoooWRQREQQTQQEQUWRWQ",
";5wbCYYRYQQYQZZZooooooooooooooRQKYEKIZZZWRWQQoooQQWRQREQQYQQEQYY",
";;;7jjmVYYoooooooooooooTQQTQQTQQTQQTZZZRYYIWRWoooEQQQWYQQTQQEWUQ",
";*$;:1oooooooooooQRRRRWQRQQRQQRQEQQZZZHYEAJYUIWoooQQQQQQREQQTQRE",
"*;;;*ooooooZZZZZZZZZZZZZZZZZZZZZZZZZZZZZZWURRYIQoooREQQQWRQREQQY",
"*;;*ooo;*$:58iZZZZZZZZZZZZZZZZZZZZZZZZZZZQQWEYQEYoooQQREQQQWYQER",
";;**oooooo;$*ZZZZZZ=58iyjkgkmbCZZZZRERRRQQEWRQWRWUooWRWQQQQQQQUQ",
";;*;;*ooooooooooooooZZ>>wfgBFPZZZZRERWRQWRQRQQRERQooIooooooooooo",
";;;;;;;;;ooooooooooooooooooooooooooooooooooooooooooooooooooooooo",
";;;;;;;;;;;;*;*;=1wooooooooooooooooooooooooooooooooooooooooooooo",
";;;;;;;;;;;*;:58fjBFIRRRRQZZZZQREQQTQQTQQTQQYQQZooooooooooooYQQR",
"$$**;*;;*;;;0jjmFIRRRRQQQZZZZEQQTQQTQQYQQEoooooooooooooMGWQQQQQR",
".$*$**$;*$7ybFSRYGYEYEWIZZZQQTQQYQQooooooooooooooMoop6ukFRQQQRWQ",
"$.@@$$$*$*inFIYUQWRUIQZZZZAEEooooooooooooooZxnmzbooozzcNPQETTERQ",
"$@@$@**@$0cVIQRQQQQQWZZZZoooooooooooZZZZmcmbxMVSUooIIIYIUQQQQQQQ",
"**;;;**;=0MVRQRWEQQZooooooooooZZZZZZURPURBUIIYURRooRRIYRRWRQQQRW",
";;;;;;;;=0nFRQQRooooooooooZZZZZZRRWRRWRRWQRRRRWQRooQGJJRWIQETTER",
";;;;;;*@#0nGRooooooooZZZZZZZQQRQQRQQRQQRQEQQYQQJoooYWIRQQEQQQQQW",
";*;;**$@@3cSoooooZZZZZZZQQTQQTQQTQQTQQTQQTQQJQEJooIWYWQRQQWRQQQR",
";*$& O$$.*ooooYZZZZZZQQTQQTQQTQQTQQTQQTQQJQEJYQoooWEEERRQQRETYEQ",
"**@$-$@.*ooooPRZZZZQYQQTQQTQQTQQTQQTQQJQEYIQIWRooWUQEQQEQQQQQQQQ",
"293--*@@$oooyzVZZZZZZZWQRQQRQQRQQRQRRERIQPWRWQoooTQQERQQQWRQQQZZ",
"l9;;*;$**;oooooooZZZZZZZZZZZZZZZZZZZZZZZZZZZZoooZZZZZZZZZZZZZZZZ",
"d;;**;*;;*oooooooooooooooooooZZZZZZZZZZZZZZZZooZZZZZZZZZZZZZZZZZ",
",*;*;;;**;;*;;@$oooooooooooooooooooooooooooooooZZZZZZZZZZZZRImji",
"*;;;;;;$*;*$*$@*$$;;$*:=:=:woooooooooooooooooooooooooooooooooooo",
",;;;;;**;;$****;;**;;;**;5wnFZZZZZZZZZZZZZZooooooooooooooooooooo",
"-;;;;;$**$;****;;;;*ZZZZZZZZZZZZZZZZZZYQQRoooQERQQQQWUZZZZZ@@;;*",
"&;;*;*$@$***;;ZZZZZZZZZZZZZZZZQQQQRRQQRQEQooQQYWQQQRIZZZZZZ;*;;;",
"$*;*$***$;;*ZZZZZZZZZBFPRWURQQQUYEYRQEQQToooRQQQQEWZZZZZ;@;;;;;;",
"*$*$*****;ZZZZZ;1wnFGRRRRQQQUREGYQQRWEQQoooYWQZZZZZZZZ0<**;;;;;*",
"$$$$$$*;*ZZZZ*;yzBIUYRQQQWRQRRQQUQEQQTQoooZZZZZZZZZZu1@$;;;;oooo",
"$*$*;**;;ZZZ;5wnIIRWRQQQQIEEYRQZZZZZZZoooZZZZZZUIBz0<ooooooooooo",
"*;;;;;;*;ZZZZZZZZZZZZZZZZZZZZZZZZZZZZZooZQRUWRooooooooooooooo@@*",
";**;***@@*1ZZZZZZZZZZZZZZZZZZZZZQQERQooooooooooooooooo;;*$*$***;",
"**;**;*$*0jSUIRRRQERGQIWQEQQYQQERQRWooooooooooo:***;;*$*$@@$*;;*",
";;*;;*;7ymFRYIYEYRQPWQQRWEQQYQQooooooooooVvu5;**$*;;*$$$@$;*;;;;"
};
