/* XPM */
static char *result[] = {
/* columns rows colors chars-per-pixel */
"64 64 129 2 ",
"   c #415C39",
".  c #484848",
"X  c #494949",
"o  c gray29",
"O  c #4B4A4A",
"+  c #4B4B4B",
"@  c #4C4B4B",
"#  c #4C4C4C",
"$  c #4C4D4C",
"%  c gray30",
"&  c #4E4D4D",
"*  c #4E4E4E",
"=  c gray31",
"-  c #564242",
";  c #574242",
":  c #504F4F",
">  c #505050",
",  c #515050",
"<  c #515151",
"1  c #525151",
"2  c gray32",
"3  c #535353",
"4  c gray33",
"5  c #555454",
"6  c #565656",
"7  c #575656",
"8  c #595858",
"9  c gray35",
"0  c #5A5858",
"q  c #5A5959",
"w  c #5A5A5A",
"e  c #5C5B5B",
"r  c gray36",
"t  c #5D5D5D",
"y  c gray37",
"u  c #5F5E5E",
"i  c #605E5E",
"p  c gray38",
"a  c #626161",
"s  c #636161",
"d  c #626261",
"f  c #626262",
"g  c #636262",
"h  c gray39",
"j  c #646363",
"k  c #636463",
"l  c #646464",
"z  c #656464",
"x  c #646564",
"c  c #656565",
"v  c #666464",
"b  c #676464",
"n  c #666565",
"m  c #676565",
"M  c #656665",
"N  c gray40",
"B  c #676666",
"V  c #666766",
"C  c #676767",
"Z  c #686666",
"A  c #686767",
"S  c #696767",
"D  c #686868",
"F  c #696868",
"G  c #686968",
"H  c DimGray",
"J  c #6A6969",
"K  c #6B6969",
"L  c #686B68",
"P  c #696A69",
"I  c #6A6A6A",
"U  c #6B6A6A",
"Y  c gray42",
"T  c #6C6A6A",
"R  c #6C6B6B",
"E  c #6E6B6B",
"W  c #6A6C6A",
"Q  c #6C6C6C",
"!  c #6D6C6C",
"~  c #6C6D6C",
"^  c #6D6D6D",
"/  c #6E6D6D",
"(  c #6D6F6C",
")  c gray43",
"_  c #6F6E6E",
"`  c #6F6F6F",
"'  c #706F6F",
"]  c gray44",
"[  c #717070",
"{  c #717171",
"}  c #727171",
"|  c #737171",
" . c #727272",
".. c #737272",
"X. c gray45",
"o. c #747070",
"O. c #757171",
"+. c #747272",
"@. c #757272",
"#. c #747373",
"$. c #757373",
"%. c #767272",
"&. c #767373",
"*. c #777373",
"=. c #757473",
"-. c #747474",
";. c #757474",
":. c gray46",
">. c #767474",
",. c #777474",
"<. c #767575",
"1. c #777575",
"2. c #767676",
"3. c #777676",
"4. c #932A2A",
"5. c #922B2B",
"6. c #932B2B",
"7. c #A52323",
"8. c #A62323",
"9. c #A72323",
"0. c #A02525",
"q. c #A02626",
"w. c #D51010",
"e. c #D51111",
"r. c #F60303",
"t. c #F70303",
"y. c #F80303",
"u. c red",
"i. c #9A9E18",
/* pixels */
"c c c c c l l c l l h h l h h h H ` | <.3.>.3.3.,.3.3.,.3.3.,.3.3.1.<.3.3.<.3.<.2.3.<.2.1.3.3.1.1.3.s s s s s s s <.<.<.<.<.<.;.",
"c c l l l l c h h h c h h c h h N Y } #.<.>.3.3.,.3.3.,.3.3.,.3.3.,.3.3.,.3.3.1.<.3.3.<.3.<.2.s s s s s s s 1.3.3.3.3.3.3.3.3.2.",
"l h h h l l l r 2 * o . . . . . . . . + 2 q S <.1.<.3.1.3.3.,.3.3.,.3.3.,.3.3.,.3.3.,.3.s s s s s s s <.2.3.<.2.1.<.2.1.3.3.1.1.",
"h l f h c l 3 . . . . . . . . . . . . . . . . w >.<.<.1.:.<.1.<.3.1.3.3.>.3.3.,.s s s s s s s s ,.3.3.1.<.3.3.<.3.3.<.3.<.2.3.<.",
"l c c c l 2 . . . . . -               - . . . . 6 { ..} :.:.>.<.<.1.:.2.1.s s s s s s s s ,.3.3.,.3.3.,.3.3.,.3.3.,.3.3.1.<.3.3.",
"c l c c 9 . . . . .                       . . . . u ` ) ]  .X.:.:.s s s s s s s s 3.3.<.3.1.3.3.,.3.3.,.3.3.,.3.3.,.3.3.,.3.3.,.",
"c l l c < . . . .                           . . . 4 | [ ;.s s s s s s s s s 3.<.2.3.<.2.1.3.<.3.3.<.3.1.3.3.,.3.3.,.3.3.,.3.3.,.",
"l c z z X . . .                               . . X s s s s s s s s 1.1.@.<.3.>.<.<.<.3.3.>.2.3.<.2.1.3.<.3.3.<.3.3.<.3.1.3.3.,.",
"m J Y C . . . ;                               - . . i s s s s s s ,.3.3.&.3.1.%.1.1.&.;.3.<.:.<.<.2.3.<.2.3.<.2.<.<.<.<.1.:.<.<.",
"{ X.+.B . . .                                   . . F ,.s s s s s s s s s s s s s s s s s s s >.&.;.2.;.<.:.:.2.<.:.:.<.X.:.;.;.",
";.1.:.g . . .                                   . . h ,.3.3.o.o.s s s s s s s s s s s s s s s :.;.;.>.| } } ! _ / R ^ ^ Y Q ` ) ",
"3.<.3.y . . .                                   . . y 1.<.o.o.o.o.o.o.o.o.o.<.<.<.<.<.<.1.s s { ) ^ ^ I Y F B n n j n n g j n A ",
",.3.3.8 . . .                                   . . 1 s s s s s s s s s o.o.<.<.;.;.#.X.s s s F B z z n n c h c c h h l l l l h ",
",.3.3.5 . . .                                   . . = s s s s s s s s s o.X.{ ) ^ Q H s s s j c l c c l c c l l l h f c c c c h ",
",.3.3.1 . . .                                   . . & s s s s s s s s o.o.D F z a g s s s l l l c c c l l c h p l h l l l c c l ",
"s s s # . . .                                   . . # s s s s ;.o.o.o.o.R B f p f l s s l c c c l c c l h h f f h h c c l l c c ",
"s s s @ . . . ;                               - . . & o.o.o.o.o.o.o.o.o.o.o.o.o.o.s s s c l c c h h l f f h f l c l l c c c l c ",
"s s s + . . . .                               . . . % o.o.o.o.o.o.o.o.o.o.o.o.o.o.s s o.o.o.l l f f h h l l l l c c c l c c l l ",
"s s s O . . . . .                           . . . . # 1.o.o.o.o.<.3.o.o.o.o.o.o.s s s o.o.o.p h h l l l c c c c l c c l l c c l ",
"#.o.o.+ . . . . . .                       . . . . . + o.o.o.o.o.o.o.o.o.o.o.o.o.s s o.o.F z g h f l c l l c c c l l c c l c c c ",
"o.o.o.o . . . . . . . ;               ; . . . . . . o o.o.o.o.o.o.o.o.3.1.3.<.<.s s >.#.{ Y Q J B z c l c l c c c l c c c c c c ",
"o.o.1.. . . . . . . . . . . . . . . . . . . . . . . . o.o.o.o.o.o.,.3.3.,.3.3.>.s s >.<.>.>.#. .^ ^ D N c l l c c c c c c c c c ",
"o.o.o.. . . . . . . . . . . . . . . . . . . . . . . . <.o.o.o.o.o.o.o.o.o.o.3.,.s s s 3.3.>.<.>.>.X.] F A c h c c c c c c c c h ",
"<.o.o.. . . . . . . . - i.i.i.i.i.i.i.- . . . . . . . o.o.o.o.o.o.o.o.o.o.o.o.o.o.s s 3.3.>.3.<.>.2.#..._ K Z m z z n z z z g d ",
"s s s . . . . . . . i.i.i.i.i.i.i.i.i.i.i.. . . . . . s s s s s s s s s s s s s s s s s 3.,.3.3.>.3.3.>.<.X.{ ] ) ^ ^ Y Y ~ P L ",
"s s s . . . . . . i.i.i.i.i.i.i.i.i.i.i.i.i.. . . . . s s s s s s s s s s s s s s s s s s 1.3.3.,.3.3.>.3.<.1.3.:.;.;.X.#.=.#.>.",
"{ -.&.. . . . . i.i.i.i.i.i.i.i.i.i.i.i.i.i.i.. . . . o.o.s s s s s s s s s s s s 3.3.s s s 3.<.1.3.3.,.3.3.1.2.<.3.:.>.$.2.;.2.",
"H ) #.. . . . ; i.i.i.i.i.i.i.i.i.i.i.i.i.i.i.- . . . s s s s s s s s s s 2.o.o.o.3.1.1.s s s 2.<.3.<.1.3.3.,.3.3.1.3.:.2.<.2.3.",
"c A J . . . . i.i.i.i.i.i.i.i.i.i.i.i.i.i.i.i.i.. . . s s s <.3.*.>.1.*.;.o.o.o.2.<.2.3.3.s s s 3.3.2.<.3.<.1.3.3.>.3.3.1.3.>.>.",
"c c c . . . . i.i.i.i.i.i.i.i.i.i.i.i.i.i.i.i.i.. . . 3.3.,.3.3.,.3.3.,.o.o.o.<.>.>.;.2.<.2.s s s 1.3.3.3.2.>.3.3.,.3.3.1.2.:.3.",
"c l h . . . . i.i.i.i.i.i.i.i.i.i.i.i.i.i.i.i.i.. . . <.3.3.<.3.1.3.3.o.o.o.%.>.1.O.&.>.:.;.2.s s s 3.3.3.3.3.3.<.1.3.3.,.3.<.1.",
"l c c . . . . i.i.i.i.i.i.i.i.i.i.i.i.i.i.i.i.i.. . . o.o.o.o.o.o.o.o.o.o.o.o.o.o.2.:.<.<.>.;.3.s s s <.1.3.3.3.2.<.3.<.1.3.3.>.",
"l c c . . . . i.i.i.i.i.i.i.i.i.i.i.i.i.i.i.i.i.. . . o.o.o.o.o.o.o.o.o.o.o.o.o.o.3.3.2.1.>.3.1.>.s s s 3.3.<.1.3.3.3.2.>.3.1.<.",
"c c l . . . . i.i.i.i.i.i.i.i.i.i.i.i.i.i.i.i.i.. . . / { ] X.o.o.o.o.<.1.<.<.<.3.3.1.2.<.3.2.<.2.:.s s 2.<.2.3.3.3.3.3.3.3.:.3.",
"c c l . . . . i.i.i.i.i.i.i.i.i.i.i.i.i.i.i.i.i.. . .  .#.-.o.o.o.o.<.1.<.2.<.3.2.<.3.<.3.3.<.1.<.3.s s ;.s s s s s s s s s s s ",
"c c c . . . . ; i.i.i.i.i.i.i.i.i.i.i.i.i.i.i.- . . . s s s s s s s s s s s s s s s s s s s s s s s s s s s s s s s s s s s s s ",
"c c c . . . . . i.i.i.i.i.i.i.i.i.i.i.i.i.i.i.. . . . s s s s s s s s s s s s s s s s s s s s s s s s s s s s s s s s s s s s s ",
"c c c . . . . . . i.i.i.i.i.i.i.i.i.i.i.i.i.. . . . . o.o.o.3.<.1.3.3.,.3.3.,.3.3.,.3.3.>.3.3.o.s s s s s s s s s s s s >.3.3.<.",
"h h l . . . . . . . i.i.i.i.i.i.i.i.i.i.i.. . . . . . o.o.1.3.3.,.3.3.,.3.3.>.3.3.1.s s s s s s s s s s s s s } $.2.3.3.3.3.3.<.",
"p h l . . . . . . . . ; i.i.i.i.i.i.i.; . . . . . . . 3.3.,.3.3.>.3.3.s s s s s s s s s s s s s s } s s T S U / #.<.3.3.3.<.2.3.",
"h p f . . . . . . . . . . . . . . . . . . . . . . . . 1.1.s s s s s s s s s s s s s s o._ [ { ) ] s s s ) ) ` | -.3.1.,.,.1.<.3.",
"h f f . . . . . . . . . . . . . . . . . . . . . . . . s s s s s s s s s o.o.o.o.{ ` { ] _ } ..+.:.s s ;.;.;.>.;.:.3.3.3.3.3.3.3.",
"l l c . . . . . . . . - 0.w.u.u.u.e.q.- . . . . . . . s s s o.o.o.o.o.o.:.<.-.:.<. .:.;.;.>.:.<.<.s s <.<.;.>.<.<.2.<.3.3.3.<.2.",
"c c c X . . . . . . 6.t.u.u.u.u.u.u.u.r.5.. . . . . o o.o.o.o.o.<.<.2.<.<.2.<.<.2.3.<.<.<.<.2.3.<.s s 3.$.&.&.<.2.;.3.1.,.,.1.<.",
"c c c o . . . . . 8.u.u.u.u.u.u.u.u.u.u.u.7.. . . . + o.3.3.<.3.3.<.3.3.<.3.3.<.3.1.3.3.>.3.3.&.s s s >.2.;.<.3.3.1.3.3.3.3.3.2.",
"c l c + . . . . 6.u.u.u.u.u.u.u.u.u.u.u.u.u.6.. . . # 3.3.,.3.3.,.3.3.,.3.3.,.3.3.,.3.3.&.3.1.&.s s ;.2.>.2.3.<.3.3.2.<.3.3.3.<.",
"c l h + . . . ; t.u.u.u.u.u.u.u.u.u.u.u.u.u.t.- . . & 3.3.,.3.3.,.3.3.,.3.3.,.3.3.&.3.1.&.>.3.s s s 2.1.1.1.<.<.3.3.<.1.,.>.1.3.",
"l l f # . . . 0.u.u.u.u.u.u.u.u.u.u.u.u.u.u.u.q.. . * 3.3.,.3.3.,.3.3.,.3.3.&.3.1.>.;.3.;.2.<.s s 2.:.3.1.3.3.1.3.3.3.3.3.3.3.3.",
"V G C $ . . . w.u.u.u.u.u.u.u.u.u.u.u.u.u.u.u.e.. . : <.3.3.<.3.3.<.3.<.<.1.<.;.3.-.2.<.2.3.s s s ,.3.3.1.<.3.3.3.2.<.3.3.3.o.o.",
"( G c * . . . u.u.u.u.u.u.u.u.u.u.u.u.u.u.u.u.u.. . , o.o.o.o.o.o.o.o.o.o.o.o.o.o.o.o.o.o.s s s o.o.o.o.o.o.o.o.o.o.o.o.o.o.o.o.",
"W c c > . . . u.u.u.u.u.u.u.u.u.u.u.u.u.u.u.u.u.. . = s s o.o.o.o.o.o.o.o.o.o.o.o.o.o.o.o.s s o.o.o.o.o.o.o.o.o.o.o.o.o.o.o.o.o.",
"M l c 2 . . . u.u.u.u.u.u.u.u.u.u.u.u.u.u.u.u.u.. . 1 s s s s s s s s s s s s s s s s s s s s o.o.o.o.o.o.o.o.o.o.o.o.<.;.{ ^ Y ",
"l c c 6 . . . w.u.u.u.u.u.u.u.u.u.u.u.u.u.u.u.e.. . 7 J s s s s s s s s s s s s s s s s s s s s s s s s s s s s s s s s s s s s ",
"M c c 9 . . . 0.u.u.u.u.u.u.u.u.u.u.u.u.u.u.u.q.. . e [ #.o.o.o.o.o.o.o.o.o.o.o.o.o.o.s s s s s s s s s s s s s s s s s s s s s ",
"x c c t . . . ; y.u.u.u.u.u.u.u.u.u.u.u.u.u.t.- . . b o.o.o.o.o.o.o.o.o.o.o.>.3.3.<.s s s 3.1.<.3.3.3.3.2.:.o.o.o.o.o.f f c c l ",
"k c c p . . . . 4.u.u.u.u.u.u.u.u.u.u.u.u.u.6.. . . E o.o.o.3.3.3.3.<.<.3.3.<.3.1.3.s s 3.3.>.2.3.3.3.<.;.o.o.o.o.o.o.c l c c c ",
"h l c l X . . . . 9.u.u.u.u.u.u.u.u.u.u.u.8.. . . X :.<.3.3.3.:.>.1.>.<.3.1.3.3.,.s s s <.3.3.3.3.1.2.o.o.o.o.o.c f c c c c c c ",
"l h l h > . . . . . 4.y.u.u.u.u.u.u.u.t.6.. . . . 6 3.3.:.<.1.$.>.3.3.<.2.1.3.3.s s s >.2.3.o.o.o.o.o.o.o.o.H N l l c c c c c l ",
"h h h h 9 . . . . . . ; 0.w.u.u.u.w.0.; . . . . . c <.3.<.<.3.3.:.3.1.3.3.,.3.s s s o.o.o.o.o.o.o.o.o.o.U B f h c c c c s s s s ",
"h l h l c 3 . . . . . . . . . . . . . . . . . . w ;.1.1.>.<.3.o.o.o.o.o.o.o.s s s o.o.o.o.o.o.:.;. .) H N s s s s s s s s s s s ",
"l c c c c c 3 . . . . . . . . . . . . . . . . 8 o.o.o.o.o.o.o.o.o.o.o.o.o.o.s s o.3.<.:.2.<.s s s s s s s s s s s s s s s f f l ",
"c l l c l l l w 2 * o . . . . . . . . O 1 0 v o.o.o.o.o.o.o.o.o.3.3.1.<.3.s s s s s s s s s s s s s s s s s c c l h l h l l l c ",
"l l c l l c l h l H ^ +.:.;.<.<.<.3.1.<.$.3.;.2.3.1.3.3.>.3.3.1.<.3.<.2.s s s s s s s s s s s n l l l c c l h l h f f h l c c l ",
"c c l c c l c D I { #.<.>.;.>.1.>.<.3.-.2.3.3.<.2.1.3.3.>.3.3.s s s s s s s s s s ..' U A c l l h l c c l h h h f h c l c c c c "
};
